<mxfile host="app.diagrams.net" agent="Mozilla/5.0 (Windows NT 10.0; Win64; x64) AppleWebKit/537.36 (KHTML, like Gecko) Chrome/129.0.0.0 Safari/537.36" version="24.7.17">
  <diagram name="Page-1" id="NtoUzLdt_3xE_g7PEtFG">
    <mxGraphModel dx="1050" dy="1683" grid="1" gridSize="10" guides="1" tooltips="1" connect="1" arrows="1" fold="1" page="1" pageScale="1" pageWidth="850" pageHeight="1100" math="0" shadow="0">
      <root>
        <mxCell id="0" />
        <mxCell id="1" parent="0" />
        <mxCell id="9y3fLZ6qa99xW5hHlUQ8-1" value="AWS Account" style="points=[[0,0],[0.25,0],[0.5,0],[0.75,0],[1,0],[1,0.25],[1,0.5],[1,0.75],[1,1],[0.75,1],[0.5,1],[0.25,1],[0,1],[0,0.75],[0,0.5],[0,0.25]];outlineConnect=0;gradientColor=none;html=1;whiteSpace=wrap;fontSize=12;fontStyle=0;container=1;pointerEvents=0;collapsible=0;recursiveResize=0;shape=mxgraph.aws4.group;grIcon=mxgraph.aws4.group_account;strokeColor=#CD2264;fillColor=none;verticalAlign=top;align=left;spacingLeft=30;fontColor=#CD2264;dashed=0;" vertex="1" parent="1">
          <mxGeometry x="110" width="560" height="680" as="geometry" />
        </mxCell>
        <mxCell id="9y3fLZ6qa99xW5hHlUQ8-3" value="" style="sketch=0;points=[[0,0,0],[0.25,0,0],[0.5,0,0],[0.75,0,0],[1,0,0],[0,1,0],[0.25,1,0],[0.5,1,0],[0.75,1,0],[1,1,0],[0,0.25,0],[0,0.5,0],[0,0.75,0],[1,0.25,0],[1,0.5,0],[1,0.75,0]];outlineConnect=0;fontColor=#232F3E;fillColor=#8C4FFF;strokeColor=#ffffff;dashed=0;verticalLabelPosition=bottom;verticalAlign=top;align=center;html=1;fontSize=12;fontStyle=0;aspect=fixed;shape=mxgraph.aws4.resourceIcon;resIcon=mxgraph.aws4.route_53;" vertex="1" parent="9y3fLZ6qa99xW5hHlUQ8-1">
          <mxGeometry x="255" y="20" width="50" height="50" as="geometry" />
        </mxCell>
        <mxCell id="9y3fLZ6qa99xW5hHlUQ8-6" value="" style="sketch=0;points=[[0,0,0],[0.25,0,0],[0.5,0,0],[0.75,0,0],[1,0,0],[0,1,0],[0.25,1,0],[0.5,1,0],[0.75,1,0],[1,1,0],[0,0.25,0],[0,0.5,0],[0,0.75,0],[1,0.25,0],[1,0.5,0],[1,0.75,0]];outlineConnect=0;fontColor=#232F3E;fillColor=#8C4FFF;strokeColor=#ffffff;dashed=0;verticalLabelPosition=bottom;verticalAlign=top;align=center;html=1;fontSize=12;fontStyle=0;aspect=fixed;shape=mxgraph.aws4.resourceIcon;resIcon=mxgraph.aws4.cloudfront;" vertex="1" parent="9y3fLZ6qa99xW5hHlUQ8-1">
          <mxGeometry x="255" y="110" width="50" height="50" as="geometry" />
        </mxCell>
        <mxCell id="9y3fLZ6qa99xW5hHlUQ8-7" style="edgeStyle=orthogonalEdgeStyle;rounded=0;orthogonalLoop=1;jettySize=auto;html=1;entryX=0.5;entryY=0;entryDx=0;entryDy=0;entryPerimeter=0;strokeWidth=2;flowAnimation=1;" edge="1" parent="9y3fLZ6qa99xW5hHlUQ8-1" source="9y3fLZ6qa99xW5hHlUQ8-3" target="9y3fLZ6qa99xW5hHlUQ8-6">
          <mxGeometry relative="1" as="geometry" />
        </mxCell>
        <mxCell id="9y3fLZ6qa99xW5hHlUQ8-8" value="&lt;b&gt;&lt;font style=&quot;font-size: 13px;&quot; face=&quot;Comic Sans MS&quot;&gt;us-east-1&lt;/font&gt;&lt;/b&gt;" style="text;html=1;align=center;verticalAlign=middle;resizable=0;points=[];autosize=1;strokeColor=none;fillColor=none;fontFamily=Helvetica;fontSize=11;fontColor=default;labelBackgroundColor=default;" vertex="1" parent="9y3fLZ6qa99xW5hHlUQ8-1">
          <mxGeometry x="300" y="120" width="90" height="30" as="geometry" />
        </mxCell>
        <mxCell id="9y3fLZ6qa99xW5hHlUQ8-2" value="" style="shape=image;verticalLabelPosition=bottom;labelBackgroundColor=default;verticalAlign=top;aspect=fixed;imageAspect=0;image=data:image/png,iVBORw0KGgoAAAANSUhEUgAAAYkAAAHICAYAAAC72RZ0AAAAAXNSR0IArs4c6QAAAARnQU1BAACxjwv8YQUAAAAJcEhZcwAADsMAAA7DAcdvqGQAANk7SURBVHhe7P13mGTHdd8Pn53ZyTnn2ZxzwC6wyJEESYAkmClKFinJkl89ryRbNk1Jf5iPH9uPf68ky5as+KMkimLOBAmAyFjksDnnNDnnvLt461M9d7cx6L6h+947PTP1BS+7p7f71q1TVedb55yqU4veVRCXuHr1qgwPD0//FRvp6en69dq1a/o1Pz9fFi9erN97QX9///S72Fi0aJEui2cCWVlZkpOTo997AfWx7hEPPL/1Hd5TJ68YGxuTiYmJ6b9ig3sjN6tJiouL9asXmDYybRQN00amjSwk2kZp+i8fYQnMEmBQoANcv349oUbxCoQWVjlpaWm6UwQJ00aJw7RR4jBtlBhmu418JwlgCY+GChIIjrKCbiSA8MIoJ6z6mDZKHKaNEodpo8Qwm20UWM0s4VkmX1Dg/lxBzxoAdQqjHIvNg5adaaPEYdoocZg2Sgyz1UaLhoaGXNcMtszMzJz+yx3Gx8f172BCL8jOzp5+5w6Tk5P61Ws51MfLLIBGoiyvHQJmzsjImP7LHfAh8hsvZZk2Mm0UDdNGpo0sJNpGi/r7+9V7d8KDlb0Gm2ggWImHsxjXDbwGm6yAFs/IDMItvAabuDd18lpOIsEmAlrIjfYxbWTayLSRaSMQdhulYVIEbb7QMLCelwdMFFTM60wjEVBOGP5B5GbaKDGYNkocpo0Sw3xsozQqFAYQHpUKQ3iYSGGUw2whjHJMGyUO00aJw7RRYphvbaQdVFQKEykMhNEhmC2E1UiUE8ZMyLRR4pjZRsgy1oUSmXnF+h5XLPC5aaPEYMZRYgijjRb19fXd6PE0EhWLBx4kET8dlYgGDcW97MpK1E83E5Qzs/xoJOqnmwkn2SXqS50J00bOiNdG1GVoaEhGRkZkdHRUBxp5Jl55LquuvFIebUawj8AibWddubm5kpeXp1+5z0ylY9rIGfHayIwjZ4TdRu8hCUCHZwYVC34JzoJdWX4JDqbluaempqY/eS/86twA/2C8cvzq3MC0UWwwEJHZlStX5OLFi9LT0yODg4NakXNvyICL+vIZz8NlfY7pzvcY2CgR2gyCsF6jSYJn4j3PbhEJn5WWlkplZaXU19dr+cTyGS/kNrJgxtFNpHobvY8kQLwK+S04EK8svwRngWeP9Rx+dm4Qrxw/OzdYyG3Es2ARXLp0SS5cuKDJgDqg6Ht7e6WpqUlfXV1dMjAwoMu1lD8Xg8l6zwWi31vgezNfrcv6G6DUIImCggJNEtXV1VJXVycVFRX6c67CwkJZsmSJLF26VJNIUVGR/q1bmHEUgRlH4bdRTJIAsQoKQnAglvD8FhyIVSe/OzeIVY7fnRsslDbCtQMBYCGcP39eWltbpb29Xc6cOSNnz56V7u5u7ULCEsCaiL5mkkEQsMgCGVkXlgivFoEgKwhi9erV0tDQoN8vW7ZMEweE4dQHzTiKwIyj8NsoLkmAmQUFJTjAQIseyEEIDsysUxCdG8wsJ4jODeZrG+Emam5ulsuXL+v3HR0dmhROnz6tSQJLAlLgYtBxBUkEiQKZcaEcqBf9ANKrqamRVatWadLANYX1AXk0NjZq0oBkomHGUQRmHIXfRrYkAbipNSMLWnBcFssGJTgQLbygOjeI9q0G1bnBfGkjyAAXEsTQ0tKiCQFi6Ozs1KRAHMGKG8ycjc0lWIRBLIM+gSsKkli+fLkmDV5Xrlypr5KSEi1zM47MOLIQdhs5kgSwhMfsJijBgWjhBSk4YK1uCLJzA6uRguzcYK62ETEDiAFSINh87Ngx7UKyiIHf8GyUFz37mi9AlpZbyrIyiFmsXbtWtm7dqkkDtxSfETB3AzOO3ouFMI7skGwbuc7dZBWEf9ULLHeAWyA4Ho7B4gXMNHg+L6AsZnO8ugV1oU5egBIAlOUF+OG9YK60EYMWYsBtRODZIgZcSpAGFgP39/JM8wXIloEMIaA8cEutWbNGNm7cqMkCdxSXk+zNOLqJ+TqOvCCZNvJ06BAPB4t5EYRX9gI8EoFIBOgWicwwAOVQL7egLl5nGMBaYulFdl5nGCBV24jvsQqJOMPx48fl4MGD2pUEMShr9kY7eHnu+Q7LwoAwysrKdMwCC2PLli06nrFixQq9iipe25lxFMF8Gkcg7DbyfDIdguMnboWXiOAAs01+51Z4iQrOMnndlpNo50ZulOFlBpBI5061NuLfsBhOnTolR44ckQMHDmi3EstTkb0hBneAMOjjLLMtLy/XVsXOnTtl9+7dsn79+rhkYcbR/BhH0Qi7jRI6vhRzDLhpqGQEh2lEWW4qlYzguL9lYjohmc6NH5Hf0+ncdLxEO3cqtBF1xWo4d+6c7Nu3T1+4mFiuiiy8DHI/oZ83bZFkqGdenJ6mr4zp18V8pv6N71xT7XOV69q76ll5tf6OXPz7dfdDx1cgb/o6+zCwKG677Ta55ZZbZN26ddoVFd2WZhzN7XEUC2G3UcJnXLsVXjKCA26Fl6zgAM/pVI4lOK+wOjfgHsjNSfTJdG4QdhthFVBHNrLhSoIYLMsBcuDf3M7KEkGaeo6MxWmSzd6EzMXqVV3veVWfZ6RLlvo7U9U3k/eLIxfv9WfqvbqNktl1mbx6bfqKvJ/ivZLlBK9TV2VcXaMTU/oa43WS95PquipTLgZhssC6oM9XVVXpFVG33nqrtiyIYeCaYkwQ4wFmHHnDbI6jVGujhEkCcBMnNk9WcIDBgADtGskPwQEaya4cS3BeEd25Afdx6uDJdm4QRhtRB8pta2vTQei3335bEwRLWXEr4UP20M1cAUWONZCXlSlFeVlSnJcjxbnZUpibJQU501d2puTnZE6/j3yWk7VY/y5d9SksCi7Ihb/Tpt8T2uNpr12fTvqnnl2/V6/X1eu1dyPWBOQwMDIu/aPjN1771Svvh8Yhi0kZHpuUgTE+m5AxRSJBWB+MDYKsrIAiTrFr1y5NFlgWLK/l3/iOGUfuYXTdzTZKiiSAE8v6ITiA4OxY1i/BATvhWYLzipmdG3CvePUBfnRuEGQbUR7BZ2IO77zzjrz11ls3dkHPrG8yQHlnqdl+vlb2ihgUIZQX5kpVUb7UlBZIXWmhVBfnayLAGsjAOlD15hXrgs/4Oz1dkYG6V7Jg1OB+wqKYmMK6UK/TFgavI4okIIzOwWFp7xuW1t4h6Roc0Z8NjU3IoLr4zpQiGz8J1CILLAuIgiA3K6PYh0EQ3Iwjdwh7HEUj1dooaZIA3Cwey/olOADLcsUSnp+CA9EbeKJhCc4rYnVuYCc7vzo38LuNKIcYA66kN998U15//XVNFBAGdfUDzPJzMjOUlZAtZQW5UlNSILXqqlJkUF2iruICKVEWRP60xZCblaGthFQAlgbEgbUBGQwpi6J3eFQ6+hVpWJcijy5FIj1DYzKgrBAsDSwWP8B4wA1FzOLOO+/UcQuIgz7FUkgzjuwR1jgCqa7rfCEJEE94fgoOxBOe34IDPPfMf7ME5xXxOjeI10h+dm7gRxvxW+4PQbz00kuaIA4dOqTzKrG/IdlZMcSQrYihKDdLKgrypKG8UJZWluiroaxISgumSUFduVmZOuA8F4BUiGuMKsIYnr56h8ekpXdALnX2y8WOPrnSPaCtjUFFGOPKOklWloAxQTB727ZtsmfPHtmxY4f+22pzM45iI+hxFI1U13W+kQTAdOF20cLzW3AAwc302wUhODBTeJbgvMKucwPuS32im8Pvzg2SaSPWqLMzmqWsr7zyir5IuEc6jXgmqxvg/iGwXJiTJeWFihjKIsSwrEqRQ0WxthywJnA1zRVScANcTcPjE9oFhVVxoaNXzrX1yIXOPmntHdQWBq4pyCUZ0ObEJohXYFFwsWy2trZWu6fMOHo/ghxHM5Hqus5XkgAzhReE4MBMlg1KcCBaeJbgvMKpc4OZM6EgOjfw2kY8ExveWLH08ssv64sANakzYs3c3AKFn6csgoqCXGlUZLBckcKK6jJZVhkhBlxJxBjmEzHEA6uhBkcnpHtwVFkXg5owzrb16te2vkFNJLiuknFH0b+IV0AQWBWQBfmhSG+OIgJmHEUQxDiKh1TXdb6TBIgWXlCCA9EsG6TggNXxguzcILqRgurcwG0b8dxW3GHv3r165RKrlvg8URBExmogrrCiulTW1VfKmtpyqS8vlPKCPP1vC4EYYoE2IfDNCqmOgWG53NUvZ1q75bS6cEl1DoxoVxUxj0TBOGGJ7Pbt2+X222/XAW5SlhOrMOMoAr/HkR1SXdcFQhLAEh4pBYISHLCERxlBCg5Y9QiycwMaiWWjZAD1Cr/aiM6IG+nkyZPy9NNPy/PPP6/f0y7WzMkLol1KdWWFmhQ2NFjkUCQl+Tl6v4I1ozUQvVyW/RfdQ6NypbtfTjZ3ybErndol1dY/rF1R7N1IBIwbUpKTQPCee+6RBx54QC+ZRaF6zSUEzDiav7ou/asK+i8XQDkgdDdAaAjPurzCbVIuykFwdIhEGoj6uFV6fI8yKMsraJxov6IdKIcyuLwqTT/aiEFI7IEVSz/60Y/kiSee0ARBJ+M3XpGjyIHlqeuVxXD7uiVy/6YVcs/GZbJjRZ2OOxTmZmvLwRDEe4E8sLqIx7Cya0lFsY7VsKqLwH2aEhc7vyOXt3ahHRljLFUmbQqb7uhvFkl4HbNmHM1fXbdodHQ0cSenSyA4tw2bKBAel1shJAoaCkZPRFl6RZhlWW3ETI1UGriWnn32Wb1yicR8icgVBcd+BlxKO1fUypZlNbK8qlSqi/IlNzvDl/0KCw0QwsDohDR1D2gX1NHL7XL0Sodc6ujXQXCC4V5B25Pig5VPDz30kNx1113a/eQ1C6oXzPdxFCTC1nWuzpOwALN4NRGjZ59ehOfVj4hyw4+G8LyUQ328sDIzGZZ6ei0nET8iZqjXTpdoG1EGWSIJSD/11FPavQRZIFevYK8CM11mvlsVMexcWSubGqt1DCJLPZ/hhuSBK4rYBKugjl7ukLfONsuRS+3SrP7GReV1Zzf9mX5DSo/7779fPvCBD+igNi4U+qATzDiKjKP5qOvS/+RP/uSrbhkWVvGayx0Th4rwWy9s7nUWQ4W4EJyXcqyNRW4Be+OO4f4I3C2b812v5jVmKOXQwYNsIzoCK5UISuNeIgZBsNqt79cCLiM2tbE6ac/aRnl4xyp5aOtK2by0WioKczV5GILwB/RzclCxybABN1RFiZTm56ix9q6Mq3FAvimvM03GquV+QrEyBlEsvDoRhRlH81fXpX/5y1/+qttGSlRw3JuKUCkuN5VKRHA0kFUOHcJNnRIRHHWy4LacRDs3oE5BtREzEjbGvfDCC/KDH/xAL29tb2/3NENB3uyMri8rkltW1svD21fra8eKWmU9FGi3E98x8B/IFbKoLMrTy4jZkY4VN0HywUk1JqbHnlvQ7sQnyOBLPwDssSBFuR1RLPRxBOarrkv/yle+8lX+cCO8ZAQHqBT3cCO8RAUHrHtTllM5yXRu7s3lRnbJdG4QRBtRDzbD/fSnP5Uf/vCHOikfCsJJZtEgMR57GdY3VMpHdq6RR9R16+oGaSwviriWpr9nECwYU6QlqS0tkqXKkmNTIpYbFsWYmghc9RDYpv2xLrEoWMBAn2MvBW6ReESxkMeRhfmq6zRJWB/QAewKSlZwgPsjOCfhJSM4YN3bqUMk07ktUJZTOcl2buBnG1EHVixBDlzEIrzEH1Tz6RTcNaX5sntVg3x011r5wNZVsrKmTC91NZgdkNaE1VBYFawcK87P0SnNWS7L3gq7vjMTWJm9vb06uy/ji9PxIItYRLFQx1E05quuu0ESwKmR/BAccCO8ZAVnwalOfnRuwOd25fjRuYEfbcTzk1rjm9/8pvzkJz/RAepYdYoHViWRont1XZkihtWKINbJrlX12idukBrAxVdZlK8XD5AtV81pZWRiSlsVuKDcgjGFdYlFgX+aVVCQxUyiWIjjaCbmq657D0kA/iFeQX4JDlgC456xhOeX4ICd8Pzq3BbilcPnfnRuwP0TbSNmhxwE9LWvfU0ef/xxnZiPz9wA1xEujDKldHYsr1XksF4e3r5KVtWW6ZiEQeoBFxRp1LEsIPaR8SmdkVZbFdPfcQL9jJU7xClYAUd2WdJ7RI+bhTaOYmG+6rr3kQTgH2OZY34KLhqw7Ez4KThAXWLVyc/Ozb3591iN5GfnBom0EfLhzIe/+Zu/kV/84hc6rbdT21ighcjOuqyqWO7btFw+pgjijnVL9HkOZr9DaoMzNSoK85RVUaQPZiJPFERBcNvtUln6GXEKiALLoqamRpOFNXYW0jiKh/mq62KSBIhVUFCCA9w7uiy/BWdhZsfzs3NboB505Ohy/O7cwEsb8R0OBPqLv/gL+eUvf6kT9kX/zgmsmNnUWCUf271OHr1lrWxorNTJ+QzmBlBOZNElBUptaYFeVIBV4SUPFP2FuBXWJ7GK+vp6TRbce6GMIzvMV11n+wsehILCQiyW9RM0DHWiQwQJysGFE4bs3LYRBPFnf/ZneqMca+CjO6kT2DW9a2W9fPaOzfLIzrU6UyvnQRvMPZA7a+eKOvn8XZvl83dulu3La/TeFreg35DTi4nGX/3VX8n+/fun/8V/pOI48gtzSdc50gqsFbRSBbAWggtDeJQVRodAdl5nPYnAqY3I4Pqnf/qnepMcvmW3YHMcyfge2LJCK5V7Ny7TWVoN5jYIanNOx8M7Vivi3yS3rmrQEwG3YAwRm3juuecCJwqQKuPIL8w1XefK9giLZalQGEB4dIgw6oS5FkY58dqIXdS4mMjDhE/ZLVjeurqmTB5VlsPnUCSrG/TSyoD7tUFIQEGV5efouNKnb98od29YquMWXuJLuJ5efPFF+Yd/+Aed4ytIzPY48htzSdd5ShXOEjivuXy85gsBVMrLjBckktOFqhOE8wLq4jWnC+UgNycf7Ex4zekCrDaiE7LM9a//+q/lmWeekaGhIf0cbmDFHx7aukorkcbyQr2rN+iZj0H4oE9w2NHxpk559vB5efHYBZ088KpLJYaPm70TjzzyiPzWb/2Wzv3kxu89V8aRF8xXXecpVThKAuXjhQW9BksA36eRvCglKuTVJOX+zByAWwXKs3kNaFnlUIbbcoDXgBagLPy4Bw8e1DM8CAIfsttycTvcsrJOPrZ7vXYvkWojwxDEvAXtmpWRLhVFeVJbxmQgXZ+CNzg24Wo/Bf2KsWqtlOMwI85vcOovc2EcGV0XaSNPNeLmYfntKIuKeRFeIrA6nNfG9QrKoJGClh0EcfjwYfnGN76hXUxeCILjQvesaZDHbl0vd65fIlXFBZFzHqb/3WB+gjHGPpdVNcoi2LlWPrVno2xbVqPTrbgB/RqS+PnPf64TRF64cOGGQvIbYY0jyjG6LoKENCONBJsFXSlYnDLCUOBWQwUNS3ZBAII4ffq0fO9739MWBMtc3c6EyvJztWsJC4L4AwFqUjwYLBywUbKhvEge2rJSE8UuZVGyr8INUKhNTU3ys5/9TG/S5IhbPgsKQY6jaBhdlyBJADoAFQpDeGEocEt4QTcSQHZ+d3AIgmR95GFieSKpv90SBGkbCFx+bNc67WqCMAxBLExgOXLux40Jg7IsS/LdEwVWBAkjWWpNKo8giSKIcRQLC13XJaURYVkKClqxUiEQhgKnocIwMel4fpXDvcjY+eSTT+qZHDM62sYNyO/DDmryL5HaG5dTmiGIBQ0y+3L+BxblR29ZK3vWNOozyN2AoPKZM2d0TjBON2TTndvJSiLwcxzZYSHruqSfBOHBfGGxX9DlAKtDBA3KSXYmhEyIO7z66qt6BscAxapwAwji/k3LlCJYp0+QK8rLNgRhoAFRcKDRLavqdZxijyKMEtU/3IBA7PHjx7XbiT0U7KmwlF8Q8GMcucFC1XW+aEIKgpHmG8uGUU6yJjPL9FijDkHwygB1g7KCHLlr/RL5sFIAm5ZUSWFulsnBZPAe4HIszc/VO7Q/vHON7GavjMsYBakwWGFHjjBS0rvtl4ki2XHkFgtR1/n2BDQSBYXBsiAMlkV4Yfk8EzGZGYicA8GKkldeecX1emtWrXCC3Ae3rZKNjZX6b0MQBrGgiQKLYmWdfGTHGp0SvtAlUZD+hX6JG5TTD73ub/CKsFxPC03X+UpTViMFzX4W8wVdDqBOYc5Q3IIBxzkQmPSk2+jq6rrRqexA6ugtS6vlA4ogtiytkaKcbEMQBraAKHA9QRBYFNuX1ei0405gnHIEKkuxuVhMwXgKEl7HUaJYSLrO95IpKCxfGuXMN6JwUw4dhwFHYJCVTGTl5DMncGLchoZK+dD21bJbDXhcTiYGYeAGxCg4EpV+wwRjbV25zgHlBGvVHROZ119/Xe/8d9NXk4HbcZQsFoquC6RUq5GCrpQlvDBmDmF2PKf64FYi/sDAY1+Em0A1A3ptXYU+h/qu9Uv1ORAMfAMDt8CiIL/Travr5Z6Ny6W+tNCVkiQegVuUCQ0bPd0urEgGbsaRH1gIui6wmtFIYTAfFQJBCw9XDmXNNiERh4AYGHD79u3TK0eckJGeJssqS+QDW1fKvWpw15RGdlIbGHgF/aZWkcOd6xrltjUNro+sZQUe6erZ5Hnq1KlQiMJuHPmJ+a7rFqnGcnZkTwMz0WvwiYISSfPrdFDITNBIlOPV/KM+Xs1fEmx5LYdBYTWyW1AfOrkVa6AzEgD8wQ9+IN/61rd0TMLNPTm+8hFlQbA5amVNmSYNA4NEQX/kZLt955rlO68elddPX9GHFzmBvrxq1Sr53Oc+Jx//+Mdl5cqVnpW4H+PIDYyui0Drur6+PteSQ9BeMzdaK254OC8P6DVzI0tB6Txey/GauRFFTcptGshLZ00kcyOrQ3g2ygSk2XjhhRfk61//uj6G1M2ywoKcTLl/0wr5lbu26MyuHEHqsW8ZGLwPHHvaNzwme49fku+9ekQOXmrXx6E6gWR7d955p/zmb/6m3HbbbXqchz2O3MDoupu6Li0M9wmFwX5emc8rKIcygjb9aBhmJWHJjnIghIsXL+pNc5jrbgiCQLVeybR1paypq9B/G4Iw8AOsiGMXNgkhH9q2Sh9i5CbGxaz56NGj8vLLL+v+TD8OcxwFjfmo69JgJC/skigs4QVdKeoTlvBAGB0PE5v0BpwwxyFCvHcCLqXlVaXy8LbVkbXtyqIIuuMaLCxAFBVF+XohBLmeSgtyXE1CWK79xhtv6N3YPT09oU24jK5LDPruFBZWI1GhoJVVWMKjHBB0x8PkY/aFFUFMwsnE1IO3ME/uVoP39rUM3lxDEAaBgBVPZI4l/9eWJdU65bhTT2PcsCyW/kwaGevExDAUuNF13qHvDJOjeOaTORaG8ADlBCk75EXCvtdee00ThdMRpIg1LztTti+v1QOXM6rNZjmDIJGllDs79x/cslJWKOs1w8X+CVY7sRwW65hssVZQNWgdZHSdd9y4K8IL0+yjnPlCFNbMPoiZEEcOkgOHwcTBLnZAmtkZGXrDHBue1tdXutrwZGCQDBjGRbk5smdtg9y5bonene00MUHXNDc335j8EPQNchxFw+g6b3jPHWkkrvnotwu6Q1CO37IjFoF7CYLAPOdvO6Snp0l9eaE+NIb0zvk53o6HNDBIFOjA2pJCuXvjMtm8pFqnf3HSiwStSf7HTmzrkKIgxlEsGF3nHu97ahg2LOFZlQqDZUHQjWR1PL8aiaAewT0sCZbx2QERkk9n69IaNaNr1AcJGRiECTbara+vkPs3LZcV1aXKinXWISzCYDEGG0OtBRl+j6N4MLrOHWLeCcFRWFjCo0JhCI8ygu54yM4PUxargVO+sCKwJqzGjwcGJKuZblcE0Vjhbd21gYFfIEPsnnWNesVTZaHzEbjMslkKSz+PPvLUr3HkBKPrnBGXbiyWDbqRgCW8oGEp2lQnCn7LSXPMsMh545R6A/8v6RFuW10vO1bUKYvC+65PAwO/UFtSoEmCc0rcrHYiHnHixAltMUcv7w6LKIyus4ft04bNsmE1Egi6rGQ6OL5aTvbCV0twj/vYgYFIVs7daxqkRg1QA4PZBJvq1tZXyB1rl+jlsYsdxgBjhRV85HaaucQ7mXHkBUbXxYcrSkOAYQkvrHLoeEEzutXBvdYJYoAgSOTHFnw74AeuKY0cXL+psdrkZTJICRTmZMmOlbWyubFKB7GdgDVBf2dZbHd39/SnESQ6jhKB0XXvh6cEf/jJLXZyi8zMTE8PiC8Nv6TTSp6ZgC29JtdCeG7SW0SDulAnL6Aca+WGE3ge8jP9zd/8jd6V6vR8HDt638bl8qX7d+gUHAYGqYKRiUl56sAZ+ZeXDsmp5i6ZvGrf/4uKiuThhx+W3/3d35Xdu3e/z3fvZRxFg3xRXmF03U1dt0j92DVJUCFyr/DqFl6TSllgZuGlnEQSfwE2p9FIbsVAXbwm/gJsFqKRnDoe5va3v/1t+d73vqcPE7IDeyDW1JXLF+7aKh/asVrP3gwMUgkXO3rlG3sPyc/fOS3dQ6O24wyltHHjRvnt3/5t+dSnPiUVFRXT/3ITbsdRNLwm0ANG193UdZ5tkLDMMYQWRjnUh84ZxooDYOcfpPFY4UEAj5PnnMDOalIhsLvaEIRBKqKmtFCfj728qkSyMpxjE0yM2GDHyr5YcDOO/ILRdREkRBI0VBiNhPDCKCes+lgdPJ5Jyo5qfLIQhZNpiBXRUFYoW5fV6NQbBgapiOyMxbJ5SY1OMllekOe4E5vjTVm0wUSJfUKx4DSO/ILRdREkJGVmvFxhsB+VCpPNZ9OiYPbEste2tjZHkxArgrQb6xsqXQUGDQxmC1XF+bJzRZ2srimVHIe+yviwFm6QZSAe7MaRnzC6LkGSAGGzbFjCoz5OCjpZIDvKiJ4JsaKDHDacNueUxI8VTKxFJ1CNNREsrRkYJAf667r6Cm1NuNlgR74yrAn2CPE+HmKNoyCw0HVdUtKlAAQYZqWCRliNhNyA1cEJWJOCg1iE9W/xgBXBvgisiHwTizCYAyB1/cbGallWVapPR7QDY5DNpIwHp8UbM8dRUFjIui5pySK8sFg2LHOMcoLudMDq4MQfiEPgbmKlgx3YF1FdXKCTqDWWF5k04AZzAmmcO1FRJKtryqRATXKcgAXBCYzRqTriwRpHQbuKF6qu80UTIjyusNgvjHLoeGERRXt7uzateXUaECTxY6CRDrwoz/syOAOD2UJFYa5esk1WAKcU9iw/JTbBoUROyS0B4wiSCIMoFpqu800LUhDXfGJZJ+H5BWZLpExmMNAB44F0B5jtm5QVsaSyxNG3a2CQSiB9zMrqUlmlJjn5DtYE44DVTcTpGB9uwHgNAwtN1/mqAWnYsITn1p+WLKhPkDMU0m7gd2XWxOzJDtmZixU5FMu6+nKd0M/AYC4B1yjLtYmlMdlh0mMHXK8s5GB8oCzdAB2Esgt6creQdJ3vkkR4NGhYwgujHOoUFFFwdCO+V2ZNTgMBXy4zMQYasQkDg7mGorxsWV1bLkuVJZybZa/42F1NAJvxMTOfkx1QdhZZBImFousCk6JlJgWhWKMRVjlBWRRYEAwCzvy1A8sIWW+OqV6uZmEGBnMRi5XirleTHPpxYU627fJtFFZfX58cOXJEnznhBfzWUnhBY77rukCpFvbjChqUYc0eggRlUJZf5ViuJqwJpx3W+HBXVJXo9AYErw0M5irKC3KVNVEmNaUFkuEQwOYsFVxOLBH3mgjPIoqwdNB81XWLFFO7Lg0W85rczlrS6VWAXpNyoXBhWq/leE3Kxf29Jv4CsZJynT17Vv72b/9WvvOd7+iUHPEaHl/uMkUOn7pto3xs9zpzZoTBnMZ11c+PXu6Qb+49JM8dOS+9w/HT4TObra2tlS984Qvyb/7Nv5GlS5d6Tm7HghDu40WxGl13U9elBe23AxTm5eESBeV4TaGbCKz6JGv2sWqDE7nIV2PXgbMyFisTvUib6CUmYG0wx8Gkp6ooX5ZXl0pxXo7tOGJc4Ipl9Z/TxjonGF3nHZSTRiOEJbwwAi+YpGE1EvVJlChwL7ld1cSZEbiaGsoLJcvBPDcwmAsozsvWweuq4jzJXGyvfxgfjBX2EXmxBqLB74yuSwyaJECys2I3sAIvQYNG8mOm7wSrMyTS8XAv4W7iTF/8f/HATlV8uCuVFVGhZl9htJPB7OH69XdldGJKOvuH5UJHr5xt7ZHLXf3aJTPlcGjPXAJpw+tKC6SxvNgxxsY4Y5yQ+NLpvHc7GF2XGLR2s5RUGMKzKhU0LAUeBlFQhtdyCMThasKPaTc7yslYrJe8MusyZ0bMb0xMXZWmngF580yT/GL/afn+a8fk268clh+8cVyePXxOjlzukK7BEZlSCmiug/HCXgkWYuBCtRs+jA8rgM0ij2RgdJ133JgC0xCJKLtEYFUqaFiNFLSJyazBq0XBrAgT2snVlJ+dJQ1lRXpAmb0R8xNXleLqHxmX402d8sT+M/Kvew8pcjgiP3v7pPxckcVP3jwh33r5sHxLEcYzh87JubZeGZ30ttInFVGcG3E5VSoLOcNBH5AZGZJoamqa/iRxGF3nDe+5Y5gsG5Y5ht8OwQVdJxqJctw0EsRAtlfWgPM7OxTkZEqtMsuL84wVMR+hrYfuAXn5xCX5kSIDiOGN001ytq1HWvuGpGtgRJqVdXHsSoc8f+S8/OD1Y/Kzd07K4Yvt0jc8JtdsXJWpDjII1JYWypKKIsc0HWysY2JFXALdkSyMrnOP92k0i2WDYKSZCJNlgzTHLLglCjo67iZMaDtXE7mZMMXr1EAqMK6meQWU+8DouJxs6ZJfHjwr31fKHyvhfHuPjMWwEq5df/eGtfGksjZ++MYx2Xv8olzuGpBxRTRzEYxHkv4tU9YEq5zsgFJnlRPuJqeNp25hdJ07xJQODYIAw6hUmAGesIjCqeOxe/T06dN6vbMdcrMy9Z4IlgtyDKTB/MDk1WvS0jsor5+6Ij9+I2I97DvXIp0DwzJ1zd4y4LdYFi8cvSDfffWo/PydU3JcWRl9ikCuOvw2FVGUm62D12WKLOxyOaGPGC+k0/fD5WTB6DpnxG0VBBeW8KhUmMILeuZAZ7CzKKx4BCa0HYpys6SxolhKC3IDJzeD4IESx3o41dKtrQeU/C8PndWupVjWQzxgVeBqOnCxTX7y9gn57mtH5UVFGuc7emV4fFJvVpsrwOVUWZSnT6zjvR1w07IiECvcTxhdZw/bO4TJslalggblILjZsiggBpKVuYlHMMtiEx1kYTB3QWB6aGxCL2nde/ySjiv8+M0T8vbZZm09JGIBQAPEMy539sszh87LN146qFdDvX2uWdr6hmR88qr+TqqDjXW4UsuVJZHrcGIdPncmWCT9cxo7XmF0XXw40gzCA2FUKkxzDOH5wbJ2oD4ziYKANTutWa1Bp4wHVjKRDpyzrM0RpXMTxB2Y2aPIXz5xWb6nlPg39h6Upw6c0fsfWKFk0wVcAauhf2RMDl9q124ryOJx9Uqgu29oVLunki0jaORmZ+i9QLlZ9iSBLmLJOCRhd/Z1ojC6LjYWKWXlqgshOAoMegbO/WmsoMsBYZVFA1km7euvvy7/63/9L9m7d6/txiD2RDy4daV88b7tsqmxavpTg7kAyGFi6pp0KCvhTGu37D/fKocutilLok9vigtyRRInvjGx2La8VnavqpeNqu+wz4bVQ2QSDmNceQWuM9xv39h7SE40dU5/GhtFRUXy2GOPye/93u/JmjVrpj/1F0bXvReLlOJyPc/A3COdBAJ0C69JpQCPhAL1Uk6sBHpuwIzeKTYQDeriNfEXQG5cP/nJT+Qv/uIvdC4au3JZ9vqxXevk03s26eR+BqkPYgWTqs+y4e2MshQIRh9U5HCuvVcpwlH972GBXcycKb1ZkcS2ZTWyQb02lEeWmqYaWWDtsAT4H559R94522IbU8nLy5O77rpLk8Stt946/ak9vCbQA0bX3dR1nmwQi42CNscoB6GFkcCK+oRh9lksTjI/slI6dQoGeVlBnqMJbjD7wDIglUZr36DeLU1A+v99bp/eKU3coVuRhleCoK9kqn6ZrfrB4gTydY1MTMqp5i69Oe/rLx5U1wH1/rReQos1g2JOlQA31k9JfrZ2r5Kuww4ob1LacEhXkDC67iY8O6ooCPYLw29HhwhDgVuN5MGoSgj4IZmdsErDqaw8NeMrL8wxJJGioPkIOI8Qc+jq13sWvrX3sPzDM+/I9xRJvKXIAnLwqoiZ3y9WY6uksEA2rFwmt2/ZJKsbGyQvJ9t2iWg8QBanW7vllwfOarL45xcO6GWzRy61q+cb1QFuSG626SJfzY4rCvMd8zgxhohHMNkKOqZodF0ECUk5TOFRqTCERyMFzeaUgWnJq1MjQQ6l+bn68HiD1AHtBjkMj0/IubYeefrQOfkXpXz/4dl98h1FDq+fVuQwxKKE6R94ACt9crKzZWVDnTx69+3ye599TL7865+V/+9nPy4fuuNWqa+q0NYFs0+vIEiun/fgWfln9bxYOt9/7ai8duqyXOka0GRHvRJ5bj+Ql50hlUW5kp9jTxLoHoLXkARymE9Ekaq6Lv2rCtPvHYHALJ8WgrMayU7hZWZmJtSQ0TmNuD/Co/x44N8TUfLUx7ovr07lUBfq5BV0AMzkl19+WQ4ePKgtinjA/F5XXyl71jbq3dYGsw/6IBvd+kfHdTD6lZOX5ckDZ+QppXTfVMRwubs/4Z3PjCNyF1WUFMuerRvkcx+8Tz790D1y57bNsm5Zo6xd2igrG+ukuCBfP8fQ6JhMMA5txl08WHmiLiliYIUVezRIC8L+jUXqv8wMNY7IEaZ4KBEyShS449r6huVkc5eO6dgBn/y2bdtk69atrsZitiJerzC67qauS5gkgBvh+SE4wP0RTLxK+SE4YAkvXn0swXkFJMFGoOeff17vtobN46EwN1u2LK2RHSvq9Ppxg9kBXeBd9R/++86BUTlyuV3nT/rFvtPyzOFzcuBCq3T0D8vktcRzCTF+ivPzZOvaVfKxe++QX3n4AfnAbbfIstoarbBBpurX1WWlmjCW19dKrlJ6I2p8DCvFfjXBsnGD4Ypq7R2Sc+09ckaRxaWuPq2gsTrgB6yWdJ1UkmR4kd8FBWTdMTAkR6506GeyA+Nv1apVsmXLFsnNzbUdryBZkgALWdclRRLASXh+Cc4CZl8s4fklOMDf8RrJEpxXQBIc6P7iiy/q3db4VuOBjK87FUFsWVItRXneO7hB8mCjWnv/kJxo6tIupKcVKbC/4cVjF+WEmu32jbCUNb5icgPiDKuXNMjDt++WL3z4Ifn4vXfKhhVL9eczQb/Lz82RxuoqWbO0QeorKyRD9fnB4REZGRtPKgiNhUQw+2JHv5rJd2tL6WJHn3ROE0aaIghORwwyCzHnpnQOjMjBC23asrEDY72mpkY2bdoklZWVepzaKTs/SAIsVF2XNEkABMYNYwnPT8Fxby6ENLNSfgoO8FmscizBeQUksW/fPk0SXV1dMcu0gIvp1tWNsr6+wgSuQwL9ihVK5EXCYnjl5BWdcO/pQ2d1nqR3zjXrAPWomn0nuyooJytTWQQ18uDuHdpyeOz+O2XHujVSWlTgGJxmZo/baUVDnaxRBFNTXqpm/BkyNDKq3VDJgHpRP9w+LOHF9XO6pVvOK8JgzwepQ1CS2WpcRCwM/0A8BlJiPwlJC2fqkWgwBgsLCzVJLF++XH9mjddYv/OLJAD3X2i6zheSAFQoFsv6KTgLsYTnt+BALOFZgvMKSOLNN9/UJMHqjGgZzQT+6evvXpee4VHpH1ZyiJrJIWMDf0Cgtl8p1ktqBs1+BtbqP3v4vD7g56XjF7U7iaAu/nq9c3n6d4kiNytLu4se2L1TPv3QvYoc7pLbt26U2opy1acyXLct38MVVVFSoi0RLAviGYtV38SqGB2PH+9yA+pJ7ILd4rh+zrR163xTuKTOt/dKS9+g3gA3pkh18eI03Tf96JcE/I9d6dRkbJfokLLYJ7B9+3ZZv3799KeR8RorwOwnSYCFpus8baZD0bGywA5WI1nulEQ2mAD2EtiBRqIsngkkusGE+lj3iAee3/oO7xPZTEcGy//7f/+v/Pmf/7lOzWEndkxviKIwJ1NnyOToUjZCkREWK6O+rFC7pJwSohm8F5ACCh+/O64Nchxd6e6Xpu5B7eLgb/6dY0JxJSVrMVjIzc7SbqJbNqyRPVs26VfIoiA3R1sOyShY+tGU6ps9/YNy4uJl2bv/kLx84IicuHBZetRkhONQ/QB9kmfVexrycnRfZMMnB2KxaY9d3nUlhVJVElnGmkiVTrV0yTdeOqT3cxBcjweUV11dnfzH//gf5dd+7demP70Jxij6xxpjiWymM7rupq7znSRAtPCCEhygs3DxXEEKDljCswTnFZDE//7f/1v+7M/+TJ/X6wZ0DmaHGdOzNQZnoyKLJRXFOtUCZwQzWKuLC6SsINeQxgzo1UhqxgshkEiPQ3xa1My4Xb229Ude8cWTQgMCYb+AX8QAIIclNZDDWrlt80bZuX6NrKiv0bEF9kIkQw4zwQwQsujo7ZOjZy/Kq4eOyptHT8ipi1ekS42lazYzc6+wCIO+aW2Eq1UEAVkwqakpzteZXSu41GSGRJVu4hkXlJVCRltyULX3x9czjPmqqipNEl/60pemP30v0EHIBPUWFEmAhaDrAiEJgPC4tbX6wCvcCA4w0BAeZQQpOECdKC9RkiBn05/+6Z8mlJwMdUI9WZ6YoQYm50swELEwIIxqNTDLC/L0rtXSAnXl50qZep+zQGIaEMLw2IRW+ly46jqVokHZ4DJhNzTvB0cmtOsIdwrEoBXJ9D38AoHnRshBkUKEHFZryyFf9U/azk9ymAmIbnJyStp7euX4+Uvy1vGT8s7xU3JSWRZ8NhnAAUUcjgXp0TetyUy1siiYvNTo13xNFuVcajLDQVrsi5gZf2nuGZSfvn1CZ8m91Bl//CO/iooKTRK/9Vu/Nf3p+2EpuyBJAsx3XRcYSQAqRGUS8Z+5FRygHHxnifgevQgOUBfyx3gFJEHOJiwJ0oQnC/SMNZND8fDK0lny8uv8/EVqYBblauKIpDyIDE5IhGA4gcK5CLorM39Sb+MXZ5VRL9fQmHQPjUjXwKh2J3X0j+i/2SQGKUAiLBcNKn8SA6q0sECTweZVy2XnhjWyc90aWVYXsRwS3QSXKJjZjiuy6Orrl9OXmzRR7Dt+Wk5cvCQtnd0yNjF5wx3jJ25MZpT1i8sU4iB7ACQBWVRNEwZEwtG8ZDjG0qCPYu2w/+R7ypogaB4PWtalpfKHf/iH8u/+3b+b/jQ2UKiMV6+yN7rupq5bNDQ05LqnWA/oBQRl+F10QMQNvArBCjJ5LcdrsImBRVleBxjM/Ld/+7fy3//7f3ftbvIKZmbRgxPyIFd/ZWGuJg2LODgqEqJgN3dOppqV6Nfo94u1pRJxiUzfPATg6iEeQKoINqZxsRTV+pvVNUNjk5oYugYVGQwoUhgc1u8hDFYnTSnlCCFwH20pBKAILaB4slX/YQ8Dq5U2r14hO9eu1uk02B0dIQcC0tM/mAVgWYwrQiA+ca6pVQ6cOiP7T5yRkxcvS3NnlwwoIk10r4VbMCHB3WRNaCyLg75ZnBeZwHCMKbEMTuxjJRlWhR0giT/6oz+SP/iDP5j+JD5Qjig8L2PW6Lqbum6RYjH13p3wYGWvrhYaiFkND2cFeNzAq4nITJ1dzJaJ6RZe/YjWDMNrOfgR//qv/1qThJeZQ7KwiCNTKXxrkBK7YEDmK5OfWR55c0iHEHkf+YyLQ2AgDZKuQRhYLunpN/3RDPyIq4HXyLVY/Y3yRDnj0rl2LfJqzeIt3z+vlsuHmb5FBqzLR9mzFHN0gr95nVIWAdekDiwPKisCwpi6qn4LKYRACNGgnkXKQmuorpR1S5docti0crmsbqyXytJi7W5iD0MqAYWCZdE3OCQXW9u0+wmiwMq43NYh7d29MjAcPGFYoI9YfYdJDX2TvyF4y/qzA/rhT/7kT7TLyQmMN/QPes7oOu+6btHAwIAmCTfCS1RwFKY7heoMbiuVqOAAswa7Hc3RSFRwgPq47Qx8F5L4n//zfwZyYIoX3BiglmKfVvyR95bij8Q98rTFsVgvubQGtLZS1CvLH3lv+aP1Z+qVmSMKW/v+1aDXs3v1Xs/wea//5n2EIFBeY4ogtOJX/waxQCSQysxXlNhV9ep2sPsFy2ooLy6SpbXVsnHlUtm6ZqVsWL5MB6fZu5CjyNbv/QN+g3YhpQdLZVkRdamtXVkYLZoszk4TBsHvweHR0AgjEXCuxFe+8hVNEk7j15qUeSEKo+uiSKKvr+9dKhW04CxwDzfCS0Zw1AXhuSknGZIAbuvDTA6SYAnsbJOEG0R8yxZ5LFKKn6WaEdcB/UW/8jnfjf5bfUe9022AQlL6/Mb7m5/xPqKwWKLJnhBNDPrzcJW/HVD4BJshhqqyUmlUlsPqJfWyftkSWbusUe9vKMjNlSxlbSGDuQaId0yNmQhhDMil1nY5e6VFzlxpknPqtamjS8c0sDBYOZVKgCSISUASTkHcaMvd6LoESYIPYFknH5cfgqOR3LBsMoKz4KaRkiUJ4Mai4NnYJ/GXf/mXMjgY399qKVxgKVaD8ECAGaugvKRIasrLtNWwvK5WltVV6/fV6jNyLRFvSDWXUjIgaAxhDI2OvsfCuNDcKufV1awJY0C7q8anfeKzCXZcc/AQJAFh2GGme9foOnewdN0NkgBOys4PwQEUH/eyK8sPwQEn4flBEsBJdvwGgvi7v/s7neY4HrLUrKCuslwHQyeUGdmpZnJ9A0MyqurmNVBl4AwspdycbClRxFBWVKitA1YorVAXxNBQVSllypJg45sVa5iLVoMXQBijE+MyNDKmSQGCgCgutLRq4mhq75QuZXn0Dgzq3d2zMZEpKCiQ3/md35Evf/nLUl5ePv1pbMSKARpd5wxL172HJIAdy/olOAt2ZfklOAY0zx3Pb+cXSQA7/yArmv7qr/5Kvva1r8X9PShSs9T7btkmD966U8cBGJznm9vkSluHdPb2Sa8atMOqrlcdAnsGsUH8BGWPtVCk2r68uFCTMkHopTURa6FGEQXLWQvy2GeSpX+zUMH4HFOWA7mh+oeGpbWrW5FFm1xU1wXVL1kh1a0IAzIZUP9OfCkMMG5/8zd/U/7Tf/pPUltbO/1pbMQiCWB0nT3ikgSIVyG/BQfileWX4Czw7LGew0+SAPHKIakfJPHP//zPtr9nNvupB++R3/j4h2RJdZUemB09fXKxtV2b/pfb2qVFDVRcAiR0iyR2G5UxNaPDx2zwXqDgcQ1hKRThRlJWAaRAFlXrtbq8VJ8EV6gIGoshK4OlgvPbWkgEzIqxbulzxCkgB6wMgt1X2tWlXtu6e/VEBtIYVN8jlhGEpcG4/eIXv6hJoqGhYfrT2IhHEsDouviwdF1MkgCxCgpCcCCW8PwWHIhVJ79JAsQqh3xNkMTXv/5129+jxEj+9v/59Edlw/Klejfw1JQqUxFBvxqYDD6CiSxZbOvplQ71yk5ay8qwsoHyyoCeDVfAbAFCyMlmOW+OJgYUfum0C2mJshSwFiCGytISbUnw7/m5uTorK33QwBtY/cTkBMIYGBnRwe/mjm4dz7isJjVs2rMs39GxcR0g5xqbVBOaa5GUGYmCcfvrv/7rmiQaGxunP40NO5IARtfFhqXr4pIEmFlQUIIDmErRnSYIwYGZdQqCJMDMchIliZlARqRWiBw6c5MQuvsGpLW7R9q6eqRVXe3qfffAoJrNRc4bGFeymZic0sTBK1bHXCUQ+gqxG2IJ+erCfZSniAFXHQHnKkUCrEYijTbBZ2SqLQnV1vl5WApzczVSqgPSoK9h/XJBEFgb3WpSw8SG+BrBb2IZ+hwM1YeJaUA07AAfV+TBhIgFG07wkySA0XXvh6XrbEkCcFOCLlQqaMFxWSwblOBAtPCCIgkQHaPwiyRiwSIO3E6Y+ENqAPLaPTCgSYN179pnzOfD6jvqe8zsIItJSENd/P7m+8jfDPowiYT2j+zVSFeyW6yDxHqHrnpl1ZF+zWSzX7Y+ewGLQBOCuniP7NjkZlkIhXmcmUyqBPfta+AfmIiw2xsyGFGTGSwKSASCgEAgDkikR5FG70DERQWR4MKCSOz2afhNEsDouvfC0nWOJAEs4bEiICjBgWjhBSk4YK1uCJIkgNVIQZJEPEACWBJYGnrGpuRDYBGrgoE7NE0YDFpIhe9qEtG/GVO/GZepa1e1a4ABT7tY7/UV9f76dTbBRd4zyGhHvc9iUSR7ZeSKkID1dzrfYTNeGhvz0nWgPjsza9oyuGkh8BqxGCLWAi6kSGA5V1+QAfsV5sJmNoOb5KFJQ5GHdkNpq2JcTl9qksf3vq6z2A6rf4uHIEgCGF13EzdIwm3uJqugRPKMWIzpBgiOh/OaRI8ZO8/nBZRFPhNe3YK6WLlT3AKF2NTUpJfAfuMb3wiNJOIBJW4NVC58xOPjkVdt9vOZJpTJiIsqyuLQf2NpTL9an01O8d2INcIMEDJgBn/DApi2DCKvGVF/Z+idzBFCyJJspej5G5cQVgOvbFaLvGbq+AGWBP9mML9Avzx2/qL8zfd/Jj949iVtYcQDCo+zJNhQ50QSdof6xILRdRFYus5TFlgeDhbzIgiv7AV4pBE1m3XLyiDRHOuUE2/JWCxQF68zDHD27FmdAfZb3/qWLjMewiAJt6CdIROdG0m1BcqftBksv+Vv/Z7P+FtZHHzOe3zKLA7CbcSA06k+eFUWAzP9yOeR18XpkEW6JgIIA3Lx0pEN5heOX7ikSeL7z7yoXVHxgGL9/Oc/rzfU1dfXT38aG15n6sDoupu6zpNtzuDlYmYcJCgDoXkVeCKgkcIqZ66Bdma2z+E5LA/FzYP/nxVCS2qrZWVDnaxd2iibVi6TbWtW6cN19mzZIHds3aheN8qujetkx7rVsmX1Stm4YplOZbGqsV6nz+akNlYdkRCP5ae5atYGaRiCMEgFGF13E54lgJlDxZgZBg3KCkN4NFIY9ZmLRGFgkKoIekJhdF0ECdGk5Q8LWngo1bCEF1Y5BgYG/gAFHgZRgIWs6xK2pSiIBgraHEN4+AXDYPOwLAoDA4PkgV5A/4RlUSxUXZdUrSkI4QVdKQTHFRbLGqIwMJgbCGu8LmRdlzQ1hs2yYQmPjXAGBgapDxQ4eiFoHbRQdZ0vtaWREFzQwguTZVkqFkY5BgYGycOL+yQZLERd51tNLXMsLOGF1SEMURgYzA1Yyg49FCQWmq7ztZZhmWMIDpMsDAVuiMLAYO4grPG6kHSd7zUMU3hhsqyJURgYzA2E5SpeKLoukNqFzbJhCM/EKAwM5g4sZYd+CBILQdcFVjOEh+CCbiRLeEE3EqDjhVGOgYFB8kDZhUUU81nXLRodHQ08VwTshyCDBGzOhSCDhNVIXjsEWWD/4i/+Qr75zW/OehZYA4NUhdsEfySe+8IXviD//t//e8fjSxMds4lgPuo6V+dJWMAE8ZoBFYVoNY4X4SWSY52ZA8LzUo7XzI0wrCJWz+XMxnkSBgZzDV5Iwst5El6Vt9F1N3VdWhg+LqsiQZcVlt+OcqiTF4EbGBjMHhivRtd5B+WkhaXsKMcyX4KEJbww6kRZhigMDOYGjK5LDLoWmBVhKVVMpDCEx2UsCgMDg2gYXecdN2qA8MI0x8ISXtAdAiY3RGFgMHdgdJ03vOfpw1J2VAgELbywFDjlhDVDmW/gTOyWzm55/fBx+dlLr+lD8N86ekJau3rUv7k/0nE+gPpSb+qPHJDHG0ouyAc5GfgHo+vc431PHqY5RsXmC1EA6mR2ZrtH/9CwvHn0pPzrE8/KX37nR/L/+5fvyJ+q6y+/82P59lPPyb4Tp2VwOP554PMJA6qe1Jd6U3/kgDz+j5LLN5V8kBPyMvAPRte5Q8ynDssco1Jc+O6ChCW8MGIUZme2OzAzPnr2gnzryWflX37xS3n6jXdk/8kzSlGekadef1v+5edPy/effVFOXLgsE5PzexZN/agn9aXe1B85IA/kgnyQE/JaaNZV0DC6zhlxqS0MpQos4YXBsijxMBQ4sjMWhT1YA//6kWPyyoEjcu5Ki54loyzHJyelb3BITl9ukr37D8tbx07arpefD+hS9Xvr2AldX+pN/ZED8kAuZ5V8Xjl4RN44clzJon/6VwZ+weg6e9g+LcILc1Y8XywKyjEWhT0ut3XKodPnpK2nV66qNpmJKTXDa2rvlIOnz0prV/f0p/MTbap+h06dkyuqvtR7JpBPe3evkkXkOwb+w+i6+HCktLDMMZgPwYUhvLAsCmRnLIrYaO/ukYut7TI6Pj79yfsxODIqV9o6pEfNtGm3+QjqhaV0ub1DhlR942FkfELJq00RSs/0JwZ+w+i62HBl94TFslQoDCA8OkQYdZqcnAx1hjJXMKLIgaD01avvtyIsMKvme2MTk6H1jbBxTdWL+o2Mjce0IizQX5EX8jAIDkbXvR+L1E1cT9EmJiZ03hAv8JovBFApu/xGsZCVlSU5OTnTf7kDVR8Y8Obvpi5ec7pQzpkzZ+TP//zP5dvf/raMjMRfsbNQcjexYue//+M3tQ/ergvuXL9GvvLFz8lH77lDFocwywsbkORPX3pV/p+vf0evboqHNDXrXL20Qf7kS1+QL3z4welP5x/c5m7Ky8uTz3/+8/J7v/d7Ul9fP/1pbHjNjQSMrrup6zxFUPiRVyEkAsoIwxzj/riDgg4kUQ5lBF2fuQREsSgt+DaeN6APqcuIKxwYXXcTnn4BG8F8Ya0ECEN4lMMVxooDLgMDg9QHY9XouggS0oyW3y7oSlkBnrAUeJD1cWtJWM8ihk8MFiLo+tYYcAAKPGjdYHRdgiQBYFm3ii8ZIDyvlUoElvCCaiQ6Gp3aqR4EMglgztdArYGBHej39H/GgR0YR1z454PGQtd1SWlEWJaCglKsFqgQCLocQEMFYWLiD8zMzJz+Kz5YE89uZKdBYmAwH0G/p//H2jszE4wnFGoYLqGFrOuSfhKEZ7F6kLDYL+hygNUh/AQkweX0/Kx2mZhynkkZGMxH0O/p/3ZLowHjyJp4WS6hoLFQdZ0vmpCCwvAPhs2yfpZjdWhHklCy1JbENUMSBgsP9Hs3lgTjiPHEuAK4hMIiioWm63x7grD8dpbwwmBZhOdXx3NrSUTMbTWTunb1Rl0NDBYC6O/0e/q/kyXNOGI8RY/PsFYjLTRd5ytNWY0UNPtZzBd0OcCvGQpyYebDq12j64GiypxU1/XrhiQMFg7o7/R7+r/dBInxEz2eomHN9IPGQtJ1vpdMQWEwn+UfnEtEYVkTTtAup0mC187BuzkN9ICxltwBOc1zUdHf6fdugtZ2Ywnd4Md4dcJC0XWBlGo1UtCVsoQXxszBj45Hp3Ybl5jQftn5HZfQYnCQBbIKYyDOGlTVXNWRf9ffmb+yoL9H+r23eEQsoOzC1AvzWdcFVjMaKQzmo0IgaOFh/lJWMuV4IYnIMtj5a0lkZ2VJbna2pNv0EXI15WRlSpaSGSkp5iOoV7aqH/W0y02Vnp4meTnZSm7Oy6jnKrQl4RNJgJnKLijMd12XRgXdXlZww+0FOFch1r2crlj3i3fRafhNImXRuLHuGetCaAgvkXIASbnckASBO50VVL3OV1SXl8qyuhqt+OKhIC9XGmuqdNLDMAbhbIB6lZcUSWN1la5vPOQpQl1WW63lNl9Bf6ffO52+Z5EE4ynWOI2+AMn6GLexxmW8y+i6m7puUV9fn2tPJz/2mgHVynCI0LncwmvmRjI2Uimv5XjN3IiwR0dHdWNRnluwM/Spp56S//E//occOXJECz8eyP76W499RD714D1SW1E2/en8QkdPr3zjF8/IP/70CTnX3Kpk+d42Y4a9bvkS+c2PfVg+84F7paZ8fsoBtHb1yPeefkG+9tMn5dTFy3J9RpyGAbuyoVbL4lc/8pBUlZZM/8v8AnL4wbMvyf/741/obLDxgAWxefNm+eM//mN57LHHpj+Nj/7+fj3GGbtuYXTdTV2XFrTpAiwWc5pBJwvKoYygZ500DCaZV9kVFhbqDuH0u2E1myJN8tg8PjugQim6O7dvVtcWqasol0w18Gk3rkzVkeurKuTObZtlz5YNypLwnup5LqFCWRJ7tmzU9a1T9c5Q9b8hCyUX5HPXti363ytK5q8s6O/0e/q/HRg/jCPGk1ugG4yu8w50XfqXv/zlr8IubhhJd1pl5nkBh+5YjEcjUTG75W0WspV57QUIDXbl3lYjuSmH+ngRNPWgTlY5XG7KQcZDQ0Oyf/9+OX/+vK0lkbE4XZbWVsvWNSulqmx+zhppn+KCfGlQSrFaWQm8LyrI0+6l2zZvkMfuv1M+eu/tsn7ZUu2vn88gLqNlUV2hCaGkEFlEZLN74zr52L136GvDiqWSlem8Om6uoqWzW/YeOCyHz5yT0fGJ6U/fD6zyTZs2yQMPPCC1tbXTn8bH+PRki3FqdJ13XafdTRTCj53cJ4maYFTKAvewKmiHREwwfI8WaCTKcOoQiZhg0YeEWJ0huo6xQMdubm7WBw995zvfkcHBwel/eT8IZH7krtvkP/7aZ7SSmM/AtcKJa5fbOqStu0fLsq6yXBqrK6UgN1f/vVBAfx1S5j3nWKMw+Rs32xJFnIX5efM2eG/hrWMn5c++8T35xctvyLhSTvGABfG5z31O/vAP/1BWrVo1/Wl84G6yYHSdd12nacUqgMKCBgVb7BckaByrQwQJynEru9LSUn05PRPLAPuHhmVwZMRxpcdcB4qvSCnAjSuXyQO7d8j9u7Yr62HJgiMIQH2pN/VHDsgDuSCf+U4Q9HP6O/2e/m8Hxo81lrzC6DrvuHFXhMcVhvCoFOXMdeFZsBjciaVh8pKSEm322dWddhgeHZOe/kFbs3u+AFngcmEJKFcYAytVYfVXSxbIZSHIgn5Of6ff0//jAVkwfhhHXmf6Foyu84b33BFlx+XFJEkUFssGrcAt4QXdISjHSXZ0bmY/BQUFjvVmKSBBvFFz8L3BAgD9nP5Ov7cD44bxwzjyGjOIhtF17vG+p4ZhwxKeVakwWBYE3UhWx4vXSNQT/6ObFU4jY2PTJDH/LQkDA/p5hCTGpj+JDcaNNYaS1RtG17lDzDshOAoLS3hUKAzhUUbQFgWyszNli4qKpKyszFG2LAPs6ut3HDQGBvMB9HP6u9PyV8YN44dx5AeMrnNGXLqxWDZopQos4QUNygGzSRT4UjGVnZ5heHRU2rt7ZWB45H2bqwwM5hPo3/Rz+jv93g6MG8YP48gvGF1nD9unDZtlw2okEHRZ8YiCzu3GkhifmJSO3n7p7OnX7w0M5ivo3/Rz+rtTX2c8MX78JAlgdF18uKI0BBiW8MIqBwUeNKNbRBFdJzp4XV2dzjtjZ3Yyu+ofGpLmzk49yzIwmK+gf9PP6e92VjPjhXHD+GEcBQGj696PRVNTU659GewSttjJLbzu8qMjsBrAbkdyLMCWTlkhZwLhRW9KcQPq4nVVBeVQJ2TH9aMf/Uj+z//5P3Ly5EnberKp7LMfuE9+42MflnXLGqc/NTCYXzh58YrO4fXdp1/QmwjjgfG9bt06+f3f/335xCc+4XqG7HVHMzC67qauS4PN3F7Wg1ExtxcFxbpXvAsBsDvZazkg1v3sLurD89EZYt0z1mXNNLxclEO9aCguZkINDQ2OZGPtRO4ZGNDlGhjMN9Cv6d/0c/q7HdALS5cu1WPHmni5uWKNSafL6Lqbus6zDRKWOcZDhlEO9UF4dq4fP2DNSugY5JuhszvNcFgWSGbMtu5eGTNxCYN5CPo1/Zt+7rTcm/HCuGGSxTgKGkbXRZAQSaDwwmgkhBdGOWHVxyKKyspK3dnJQUOjxQOHwfcNEpfoksER+1UfBgZzEfRr+jf9nP4eD4wTlr0uW7bsRtDabuz4AaPrIkhIypbbJAz2o1JhsnkYFoU1I8KicHQ5MYg6unRQz8BgvkEvzlD922kShFumvr5elixZosePNeEKWrEaXZcgSYCwWTYs4VEfOkWQ4P41NTWuXE5DIyNypa1DuvoGlLxNXMJg/oD+TL+mf9PP7cA4wYpgYmUpN3QQY2m+WRSppuuSki4FIMAwKxU0wmqkiooKTRJ5eXm2jD4yPiFN7Z06sGd2XxvMJ9Cf6df0b/p5PDA+SOa3fPlyqaqqmv40AvQPCJooFrKuS1qyCC8slg3LHKOcoDsduWcwncvLy23rxLN09vbLuaZmndvGwGC+gP5Mv6Z/08/jgfHBpAqSiLWJziKKoF3FC1XX+aIJER5XWOwXRjl0vCCJglgEqzS4rGVw8dA3NCRnLjdLS1f3vD9fwmBhgH5Mf6Zf07/tgKuJZa92y8YZr5BEGESx0HSdb1qQgrjmE8sGTRSYzvhZcx0O2BlWZvn55lY162rR+fYNDOY66Mf0Z/o1/TseGBe4ZFesWKHjeHZgvIaBhabrfNWAMGxYwgsrdkB9gpqhsBSWzk+KATuZXb16Tdp7euX0pSbp7Lt5FKOBwVwF/Zj+TL+mf8cD4wKX7OrVq98Xj4gFdBDKLsjJHVhIus53SSK8sPx2YZlj1CkIorBmSNayPjuwG/XslWZp6egyLieDOQ3talL9mP7stMuaXE1Y25xl7fYkOpSdRRZBYqHousCkaJlJfivWmQirnCAsCjoxMYmVK1fq07bs7s2JXRda2uQMA8tsrDOYw6D/0o/pz3Yn0TEe2HCKFUE8wovSR9lZCi9ozHddFyjVwn5cQYMyrNlDkKAMyvKzHFxOzJKcVjkx++rs7ZNTl65IhzLRDQzmKui/9GP6s51VzHhgVdPatWtduZpmwiKKsHTQfNV1i/r6+lyXRqN5PXx8eHhYv3oVIEtEvWBsbEwzrddyqI+dcp4J7j8+Pu65HFYwYTrPBI2wd+9e+cu//Et5/vnnZXBwcPpf3o/83By5e8cW+b3PPib37dquD8o3MJhLgBReePuA/OV3fyx79x+2XYiBdX333XfLb//2b8vtt9+uZ7bxxpEd+vv79W+9KFaj627qOmXBBeu3AxTm5eESBeVY2RuDhFUfP8w+7kG6AUxqctPY3XNsfEKvBjl89oJeW25gMNdAv6X/0o/pz/HAOMDVhCs2epd1MjC6zjsoJw12DUt4YQReyM0eViNRHz86b3V1tc6Tj+vJ7tlJgMYRj+8cO6mDfvM5TQeHz0yqtmR5JIfS9A8Ny9DIqExMTilTOFhTO2hgynMCG7556kX98M1Pqj41n4+qpb/Sb+m/9GO7hH6MA1xNblc1OQE9Z3RdYtAkAfxQdk6wAi9Bg0ainKDrZHWGZDseZiAzJnaUsmfCDpjnxy9ckn0nTuuD4+cjUJSDynQ/dv6iPPXqW/LNJ5+Vf/nF0/LjF17R9eb8ATsFk8rguVn++eaxE/LD5/fK13/+S/nOL5+XZ97cJycuXNarfeYrUdBfaT/6r9N+H1xKpK1hTLAK0A8YXZcY0r/yla98FeFRiFNBKEOnrKUzMTk5qWdOFnhPpaI/iwWnJaEzgbBoGAtWOVbHiAfq40XJc1/qZIG/3fyeZ7EzD3n+K1euyJkzZ2zjEpEZ9lXJysyQlQ110lBVEUqnDwu0ForyraMnlfJ8QX703MvywjsH5PXDx+TgybN6RQxNWllSLPl59psQUw20Hecm/PK1t+XbTz0nP3/5dXn5wBF5+/gpOXzmnJpd90ie6vcVqm6073xqV8bJwdPnFNG/LIfU65jNKWnUG6v6zjvvlD179rzHZ+80jmIBv7oFo+u86zpNEtOfOd7AD8EB/mYGblepZAUHKMfqUPHKSpYkAPemkaz3seDUuXkOAl9nz56Vjo4OXZ94wGy/dv2aVJeXyor6Oh3Qni+YnJxSCvO8/OsTz8pPX3pVuyc4awCXTEdvn1xsaZfOnl4pzM/VBJmbnTUnlCm9ord/UH75+tvyzz97Sl45eEQTBvXqHRiUpo4uudjarl1OHFtbVVqq+sz8WZhALOLpN96Wp1X923v6bK0lrAjcrw8//LBs3rz5PeMmWZKwYHSdMyxd955fWBUMY9CFZY7ht0MwQdeJhqMcL40QDUzqTZs2yc6dOx0PeWeFCArm9cPH5fTlJtsOONfQp6woXBJvHzsZ0502qgb8gdNn5QfPvCSvHjw6Z9KUjI9PKIvhpPxEzaQPnz0f8xQ26vvmkRPqOindA/MnmSP9k35Kf6Xf2i17BaWKILdv3y7r1693dL8mCqPr3ON9Go0GpZBElZ0XoFjDCPBY5aQ6UbCxbvfu3XrfhNPsgkDn8fMXlUI9Na+yw3aRGbS5RXpsXG7U/W1Vb3z6+LfnAtg89vje1+UdRYB2Kd97ldV0oaVVepTVMV9A/6Sf0l/tNs8BlrgSh7jlllv0qr8gYXSdO8SUDiyLAMOoVFgsGyZRJNrxCGBjTezYsUNvrrNDxJroldcOHZNTl5qmP537YNUPK354jQf6Zv/gsLyiLIkfPrdXzqhZaiqDMxN+9tJr8sI7B5XyH1DjK77lZ63o4nW+gP5JP6W/OlkRWNFbt26VNWvW6PEQtAI3us4ZcVsAwYUlPCoVpvCC7nh0BspIpBzWhFvWhFMKcVwvx85d1EFdEqXNB2QszpDcrGz1at8frOXABH+//+xL0tTeMf0vqYWOnj75+d7XdHzlinrGKZtkdoANktkZmfNmoyT9kv5JP6W/2oH+Ti4zJklkfE1mHHmB0XX2sL1DmCxrVSpoUA6CS1WLgtnTxo0bdWzCjTVBTv5n39wnbxw5LmM2s++5AgLSNRWlUuAiGD+lZHy5rVN++uKr8vQb+2RAWSCpBFZpPfvWPk1ipy9d0Xs8nJCfkyNVZSVSkBeMLz5M0B/pl/RPN2eh0N+3bdumYxHWstdEx5FXGF0XH46StwI8YVQqTHMM4QXd8aiP1w7O97Emdu3apfdOOFkT7Fo9fv6SvPD2QbnU2jb96dxFeXGhbF61XFY11ktujvOqD1ZfkAfoe8+8II8rqyJVLCqO5PzB8y/r/R0s/XRD4NR39dIG2bpmpVR4TNWQiqA/0i/pn3a7qwH9nP5OwJrNpdGKLZFxlAiMrouNRaOjo66WxiA4i9WDBPensYIuB4RVFg1kmbRuwDOxX+Kb3/ymfP/735fm5ubpf4mNrIwMWb9iqfz2Jx+RTz9wj5QUFkz/y9wDSyMvt7brWMM3n3xOTl685Oiiof3ylILdsnqFPHb/XfLoXXtkeX2tpIXQh2YCN9jJi5flR4ogfr73DUVgl/VKJqe2z1icLuuWLZUvfOgB+eQDd8uSmmrVb8J/fr/AsuXvP/eS/P0Pfy4nFElMOMRYCFJ/+tOfli984Qt6l3UspeZ1HCUKo+vei0VK4K4lzhKriYkJLUC38JpUCvBIIyMjnsphJuI18RdQJPm+fQ92oC7UySuQGxcN5QZDQ0Py1ltvyd///d/La6+9ppN6xQMNX5iXKw/culP+4HOPyZ4tG5OaOcw2xlV7HD7NXoln5CcvviqtXd3T/xIfyCA7M1NWNtTKB/fskkfvvl02KYsEuYQxCOmzPQODcvDUOfXMr8jTb7wjLZ3dum+5GWC1FeXy8XvvkF/98EOyZc0KXZe5Cvo4cYj//Z0fy3Nv7tPpR+zUDOOWBH4k8nvooYd0zqZ48DqOgNcEesDoupu6Lv2rCtOfOYIKUYjF6G7gdQMHYFBTITaHuO0MVMjrJhtAR+D53JbDd71usgF0OmRG3dzIjrrgl+3p6ZELFy7IgMO6+avXrmuTvrggX7tqUI5zFelKxlgG6elp0t03IG3dPa78+fi8WRnFpjQUdNqiNClS8sCNwz2DArERNsM99drb8vXHn5Ln3zmgg+p87gZF+Xlyx9ZNygq6U3asW63jEmEQW1BgLwREyc5yljQ7jS2WfrNx7sEHH9QBa7u6ex1HwOtmNcC9ja6L6DpPJMHNKYiKuRVeIoID7JKkPATiplKJCo6OAIvzW8v3aQdLcF5BGdGbXZxkx3fICsvvcDe1trbazgK4HzNw0h3UlJfKstoaVafgfZ5BgLrjQitUJMkqH2bobDQjHYkTcPcMj43rmACKm0P2CWgjG1ZMZWXQH5NXwJQDIZ290iJvHzshT776lvz4+ZfV+1O6PP7dDSCI2zZv0C6mO7dtlvLiooTGS6pgVMn++bf3y3eefkHOXG52XMrLTJXVfB/96Ef17monhe51HIFESMLouiRIgoIQmFvhJSM44FZ4yQiOe3Pxe6dyLMF5BY1DwyAvKzDmJDvy6dPBmWk0NTVpq8Lu+bSCVKZ9pqrHmqWNUllaMv0vcw/0L1JulBYWqLZNl67efr0py2mFDECu+MC7lBVCWo+TF6/o1NTMcFHsV6+pgaL7y2JPcQtkTyZaLJUDJ8/ofQ9PvfaW/OKVN+WlA4dUGW16maezOomgUBHErZvWy2ceulfuu2Wb1FTYn3U+F8DO6m899Zy8cuCI3u9hB8Ys8YdHH31U7r33Xp311UlxJTKOEiUJo+uSIAngVnjJCg5wfyfhJSs4wKtTOZbgvMLq3ID7u5EJfkc6ON8lnxMJACEMOxDkZdZcUlQgy+tqtasl+Xnz7IB6k5eqtLBQv+/q65PegSFXRAH4Hv7wTvU7cj6duHBJTinCuNzaoQmjtbtbu4WwVFD+0bNeXHdkmyUeckmRAof2cw7C60eO64ytv3jlDXnurf2KLM5q0uhTz+XWvQRyFAHuWLtKE8QDu3dIXWWF6ntzlyDQABA5K8we3/ualq/dOAKk37jnnnvkkUce0WThZvwmMo6SIQmw0HWdp8A1DWSdvmSBGyFAq+FmIpFgDuA0qWhQBvfB1IyFRIM51Id6RYNyrNnKTPBviQSuCTxjvkbDrhxAwI1/6+zslKeeekr+6Z/+Sd5+++333ScayIkZ+K4Na+W3P/mofPC2XXrvAZ/PVaC8sQR+/vIbOosoG7Oc0jvEAm4mAsK4sYjdlCoiLS0qlDJ9FUVeiwslV/WlUSVjUmNAIJAFryTiI23GwNCIIp8RvazVbpDFA89AUP1zH7hPHrl7jyypqXLcPJjKoI8ODo/KL994W/7+h4/rrLZOK7oYryzz/tKXvqTjEWR9ddNHEx1HXmF03U1dl7AlYYGbU6l4LOsHu0YDEzPWwKRCybKrBf6OZ45Z7OoV0TMgC9yf547XuZkBIVteeZ7e3l65ePGibSpxwAwaZYYPv7G6Um/Oopy5ShO0Oa6ZqtISTYBDo2N6iaWbYHY0EDOWFm4QlD5nLRO3IFcSFsaRs+dl/4nT8sbRE3oTWCSF93m9pPV8U6v6bqfOZjqkrDmshnjtZodc1ZYQxCcfuEs+fOetsqy2WrsH5yqQAJbr/pNn9J6QVw8d1TEhJ9kQoIYcPvjBD0pjY6NrN1ui48gruKfRdUm6m6KBwLhhLOH5KTjuzYWQZlbKT8EBPotVjiU4r4jVuYFVTqxOZ3VuymT2wD2sIHa8WYYFCAL/e3ZmhnY74dufy+vuCWBjAVSXlUpBXo4MjYzpYLZXoogGMRzkhGsJxY+8iHtABLzyN5/z73zPbTA6HthFvWPdKvnUg/fIh++4Te/lIEA/l3H92nW50Nwm33/mRXnytbeU3AZj9uVoMAsmo8DHP/5x2bJli6dMr8mMIy/gfkbXRXSd9xrFgWWyuJ0RJArKoCwqFTTokGGVQ4MwS4kHgtgk/7vjjjukoaHBsTMiJ/IG4T9nSWZnb1/MDjKXkJmxWBprquTB3Tvlsx+4V+7esUVqystS3lXD8/Gcd23bLL/y8APykTvnCUGo/kS/on/Rz+hv9Ds70G/ZOHfbbbfp/ky/9gtuxpEfWGi6zhdLwgKVopG4rM7iJ7tGg/tHsx/v/WRXC/xbdDnUxU9LwoJVH0tuIHoGRLlYE3RMK4jtJCN2L+MrZsVNeXGxXj2TnZUZ+CAKEsghLzdHKktKpKK4SLJUW7BaifTbTrt6ZwPsV1m/fIk8oIjt4/fdIffs3CoNVZWqr6Y2sTmBvtWnLK2X9h3Wp+xx2pzTclfAsm4mOh/5yEd0jjL6tBckO47cwui6m7rOV5IAM4UXlOAsWH67oAQHooVnCc4rnDo34P7Rs5OZnZtnwFTnPu3t7TqgzX3tQHwC/zsn2bGChmM/mdnOB6Jgdr6kplLvLUBp4RvnZLerDmk8wgCrl+oqyvUS18fuu1M+ctdtsmPdGqkoLZ7zGV4Z1+yHOHDqrHz7l8/J3v2HHZe7AvozacA//OEP670Rbpa8zoQf48gNuIfRdQGRBLCERwegMkEJjnK4EB5lBCU4wHcohzoFRRKA+liNNLNzUzYzL0x07kdsgmC20/Pjt2dFDvmBUKzkdkJRzWmiUM+erRRxRUmRNFZXaYXMst9MJTsi9MiEIDXyDAv0QSyH+qoK2bZmlXxgzy3y0bvvkHt3bpMV9bWa2GYjn5SfQJ6s6iKYz0qzX772jnTGOEFwJhibpL/HgrB2Vidy6pwf48gN+J3RdRFdFwhJACpEITQUBXqFW3YFVjlcXuFWcMBqpCBJAvA81IWOMFORUz7pOiAKVjnhdiLPkxPGJsb1iqCM9MVSrYkiP6F2SSUgGepAQJhzoVc21Mny+hpNhHnK4iIVx6I0lixyJri7NvYK2idHEXe5IitWKu3auE7njmJpK/sfNq1crpfValKe/s1cBqu6zja1yM9efFXvh+CMDLtDlAAyqqqq0nmZIAlOnsMins1x5ASj627qukVKwbieasFgXhsWAfA7tw9nwSv7Ww3qtRzq44X9ER5l8eoFCNwr+7Oumd/EKgtieP311+Ub3/iGvPjii66IgqWW65ctkc89fJ98/N47ZalSanN5ff5MICdcTqxOYlkr2UdPXLyiz3Jg+Wrf4LAMj45qy8ruIH4nYA1kZWZIvpoJQ7bEGNjhvn6ZulYs1avJKkuL9X4Ir8oplQFBsLGQvEzfeeoFJdvLruIQJOy7//775Ytf/KJO5MffqTKO4sHoupu6blF/f7967054sJfXjWQ0EMzPw7mdAQCvG2CsTTY8I7MNt/C6AYZ7Uyev5SSyAYZNNsiN9pnZRsiyq6tLnnvuOZ1S/NChQ7ab7CywJHbzqhWKKB6QR+66Te+jmE9EYYG2gRQ4X+Jia5s+QpMUHRdb2m7sdWDDF6SiZ6dqwDHorqlZMbJGuacrKwT5Y5EgI4L+7HNgF3hVSbEsq6uRlY31snZpg86VxfJcSCORWV6qA4K40t6pNzR+56nn9J6ScRfLj1GAnDTHpjn2RGBRoOhTZRzFA89ldF2kjRYNDAwoubkTXqKCozA96KY7hxskKjjArMFpH4GFRAUHqI/bzpBo5wbxOjh1JKfT448/Lt/73vfk3LlzruTLDJeDbT6viIINXQ1VFfOSKCxgOVib59rUpVNydHVLa2e33msxPDom41OTatY0JRN6P8Q1RQzpkpWxWM2+MrS8CpTVwKZEUnrjziKJIqRQpS52amNZzFdAEGw6fOKVN2+sZIJcncC44qxqzoj45Cc/KUuWLLlhBaTSOIoFo+uiSKKvr+9dKhW04CxwDzfCS0Zw1AXhuSknGZIAbuuTTOcG8dqIOnNA0be//W356U9/qpfHumnLSO6g1fIrH3pAHr59t/bpz/VVN26AtYAFQXZY8kANDI/I+MSkTF27qpUhK6P4DgqFXEqQJ1eusiJIO04aj2LVZ3LU33xnvoPVcaRdJ5Hht558TvafOuN4yhygvxKc/tSnPiW//uu/LuvWrdNjwEKqjaOZMLpuBknwAR3eycflh+DcsmwygrPgppGSJQngZiaUbOcG8dqIQ0vefPNN+ed//md56aWX9N9uwJkNpKn+wocelAd2b9czY+piYADo07jrnnvrgHzzyWd1qhK3ObMYVw888ID8zu/8jo5DzNQbqTiOomF03c02ujEVQmhhKAiYD/MojLKopBehJAo6dhj1iddGDBpy8bP+nDQHbgNhDPh3jp+SHzy3V17af1gphD49czQwoB/QH+gX9A/6iVuCoP9t27ZNPvaxj+lXt0tdZ3sc+Y35ouveYy/TSGGY0DBsWGVRjuUHDRJhljNTbvxN2uW7775bPvGJT+idrG5XZuBuef3wUfnuL1+QF6ZPVKMMg4UL2p9+QH+gX9A/6CduQL+j/33mM5/RK5rKyso8jfPZHEdBYD7ouvc9OSwbRoVAGGVZbB6GRRFWObHkxmyFlSOsIPnsZz8ra9eudd1hWAX0ysEj8u2nntdnJLR29+gOZ7DwQLvT/vQD+gP9gv7hBvQ3+h39D6uWmEQis+jZHEdBYS7ruphPTYXCaCQQVkOF5XoKq5xYbcSA5Lxgsmt++tOflmXLlrl+lohFcUyfKvb06+9Ic2e3cT0tMNDetDvtTz+gP7i1IOhn9Df6Hf2PJJTJuFlmcxwFhbmq69K/8pWvxNxxbQmPVwtU0OsGEzZjRN8jFmBAzLJoeN1ggmCcZr+x6uR1gwm/tTazxEOscvjbqynotBMzXjnkxIEsmFWwRJaNdtHfiQcS5JFigTTZrOgpKy7SewJYDjqjeQzmEdTwk8mrU3K5rUOvYvru0y/oGATndrgBfQ5SwIJguStk4UQQ9MdUHkdG191so7gkAayCqBgISnAAwXF/q6wgBAdmCi8IkgB8j85slRNE5wZWfaLbiBUgJSUleuByD4iCFU/Ws9iBcxM4GxqfNPfk6FDyEc31XE8GsUEbk4uJjYaPv/SaPhfi4OlzroPU9D3cSuyDYMPcypUrXY2nuTCOjK5zQRIgWnhBCs6CJbygBAd4HmY6lBMUSQBLdtZrEJ0bWPePbiM6IkFDcvdDEBZRWB3TDuwXwJpgfTzZPsmNxE5izj8wRDF/QF/gGNaDp87JD559SX7ywity4uIlvW/EDRhD1dXVOh/Tv/23/1bvhXDbP+bKOPKC+arrXOduoiAezGuFvAqOToYQSGLnBbhW3ArOAmVZCtUtLMF5gdUwXjud285tIV4bnThxQr72ta/pndktLS1avm6A9VBdXip3btskj913t9y9Y7OUlxTPi0R1Cx0M+u6+ftm7/4j8+IW98srBo9p6dBuHQpnW1tZqgiAnE0uv5/s4csJ81XWLFMO4IgnAw7GRw4sgvG7gADwSs163ygwksskGUA71cgvq4nWTDaCjeu1EXjfZgFhthDzZlf39739ffv7zn8ulS5dc15kuVZSfJ7dsWCuP3X+XPHjrznmb72mhwMrD9Oyb++THz7+s4w8EqN0qAmbyK1askMcee0x+5Vd+RVsQo5z7Pc/HkRPmq67zlCqcClEZ2Mgtt3g1cQD3p9PxkG4bie96NUMBHY7nc1sO3/U6kwE0DjJzKzfgdSYDYrUR79lHQe4cOldfX58+h8LtbIR8Ruy8RbEQzCQNd/G0+8lgboHEhriXvv/sS9rFRPxheGzcNUHQJ7EafvVXf1U+//nP6zMiGBMLYRw5Yb7qOs/nSbAdnB9zuRFeIoIDzBi4v1vhJSM4OoPlt3OCJTivoAw6OM8J3JSVSOeO10Z0Ro6ObGxs1OYtJNHT06Ofyw1wQ5Ak73Jrh7Sr32JJVJSU6NQeBnMDLEjgPOp/feIZeerVt+R8S6vO5OqmLwJ2TpPRlVxMWBH0JWtsL5RxZIf5qusSOnSIAtwKLxnBAbfCS0Zw3NttOZbgvILGYebO/d02UqKdO14bQRQQBMFGZMXxp5CFW6Lg8J6hkVGdEbStq0d98q4U5udJvrIsFkJywLkKsuBeaGmTJ199U7755HPy8oEj0tnbJ5zc5xZYoFgQWA+PPPKIjkdEj+uFNI7iYb7quoRPpqMgGsl6Hw/JCs6CUyMlKzjAq1PHswTnFVbnBpTD89qVA5Lp3AAZskeC87AvXLggp06dksOHD8uxY8fk/Pnz0tzcLN3d3a5JAvDME+r+pNjG/UTwk1qQGdVYFakHzs549dBR+eGzL8lPX3xVjpw5L4PDI54PXaLPl5eXax81FihxLev4XCvhHJMQS/nMp3HE/ReyrvMUuKaBYmVuBPH824kEc8DMzI10QMqKp9ASDebMzNwIKCdefahLIgG3RDI3ug248awDAwOaDEgVzsXfxB6sy3IvcfFvBLG4ojuOF9AexCQ4mnPzquU6oH3nts2yqrFeB7oNZhcEotn7QFoNAtRHzl6Qnv5BvWHSw5C/ARQGYwxLlP5P34Q0WGbNxWlzuDPZn8Mrf1dWVurvcNSupScspOI4iobRdTfbKGmSANwMRRNL2fglOEBH5YolPD8FB2DqWCsBLMF5RazODexkF6tz01w8F4ofMoAYuNgHwXnXvLfcSFgR1I2L39AZeM9rIsQQC5zalqssiMaqStm+fpXcu3O73LF1ozRUV+lT8AzCBTGGpvYOZT0ckxf3HZADJ87KlY5Ovd/Fr3O+GYMoF/ouF2PF+htCYJEEF7nEiFuw2Y7LIg0IhLHKd73Cr3HkBMaJ0XU+kgSIJzw/BQfiCc9vwQGee+a/WYLzinidG8RrJDo3zcPvUPocVwoBtLW1yeXLl/UFObD3gX/ne9wH64DnjjdD8Bssk0UuBXk52pK4c+smuXvnVtm5fo1UlZbomZFBsKCfdPT2yb4Tp2XvvkPyyqGj2pIYGhnTfcG77ZAYLLKgT+Oq4IIwSBPDxk7r4m8IhBQy9HPGr5t+kug48gpkZnSdzyQB6CDcLlp4fgsOIDg6VLQSDEJwYKbwLMF5hV3nBtyX+ljyY1kcvyFuABHgA+aVv6N9wfgzua9dHcKCdkEp66G8uEg2rlwmD+zaIbs3rZdVDbVSpgbq4nTv/loDe1y9dl161Fg529Qqbx09Ic+9vV+Onbuod8wTsPYwvAMDfZvxSWyAC5cUJLF06VKdOsa6IA8WVeDSYozHgpdxZMFvkgALSdf5ShJgpvCCEByYybJBCQ5EC88SnFc4dW5AR8BKwDIgsAwxsAkONxKxBIs4UoUU4oF2yc3O0pvuNq1cLrs2rpMd61bJyoZ6qSgplswM7/3B4L2I5Njql3NNzbL/5Fl5+9hJOXrugl5MwPGsM2e5qQTGEOOVJbUQApYGJLF69WpZv15NKlat0n/jnpoZdHYzjmZaFEGQBFgous53kgDRwgtKcADBWSwbpOCA1fEswXlFvM6Na4i64kaySIE0GhcvXtSfEWTmt26eMdXAsliyyNZWlMuG5Uv0ru1ta1fJ6sZ6qSwt0VaHGxeDQQSMKawDlq+eudIsB0+d1bulj1+4LK1d3TI8qvpJ1IxzLoD2Z0xBBgS8iV2QJBCy2LBhgyxfvlxbF1gfuK7ckASIVnZBkQRYCLouEJIAlvCYLQQlOGAJjzKCFByw6pEsSdDQBJWJMWAlnD59Ws6dO6cv3EkEpa00Bx6aJ2VhkUVNeZmsXdYoO9evlu1rV8uaJQ1SVVYiOarTG7KID/rAmOo7HT19cvpykxw4dUb2nTgjpy5ekbbunjlJDrFAH0BBWdYFMQusizVr1ujUH7inIBLIAv3iBO7FJAyC8Qqj627qusBIAlAQrEdjeYVbwQGERzlcXuFFcIAO6vbM3mhAEoODg9ptRGwBi4ELgoAorNVIiS5JnQtgJRRkQdLAtUsbZfu61bJl9QpZUV+rCYSls2ZT3k2g+FnKChGcb26Vw2fOy4GTihwuXdHJ+CAHv1YspRqsMc0KKFZEQRAQBTmjsC5wR7H01mnMo4MgHa+TEKPrbuq6RWrGGvhUFaaNDrwEAToBV9AKFk6loTxwqyYIrIazZ8/qzWxHjhzRVgNLWOkg/HvYxLAoTc1IMhZLZlaGLM5kKWO6pGeoi1d1LZ5+H/05GBkYld6OPhnqG5FrHnbsRgOyyFNkwcqn5Yog1inrYuOKZdqyqKss14cdsTGP7y00oPQ5y6FnOlU7lsOx8xflpLIaLiiiYAXTSBLkQDsWlKiZelWJ5BVFJju047UplkerV3VdVe/1Z1GfX528KpMTU+rfrsq718O1bhlvzJxxG7GsFnfU5s2b9Q5w4heskLKbWScyZhPFfNR1i/r6+lxLDrb06mqBvazG8SI8r35EFC3uGYTnpRyvfkSYGFeQUznUmZVHxBUgBHY5QxAnT57Uexm8snoi4BkhgKzsTMnMyVCvWZHXnEzJys2S3IIcfWXnZktmdoa61PcUafA+Q73Pmn6vP1ev1Km7tVfOHroo59TVfqlTxka8pWGORpp6vmz1TCUF+TpusbKhTlsYXCsaavVnC+EcC+TKJjfOkia2cL6pVVsLXOeaWvRnfUPDqj9NeN4pHY2cvGypXlopK7cuk1XqKq8t1XKdHJ9S16R+nVBEMDX9HlKwPh8fHZfRoTF9TYxOyMSY+nxMfV89U+R1UhOJNdaDgqWDiFNgWezcuVO2b9+uXVIQCGQxs68wEfOqvI2ui9J1g4OD77otKFHBUZjlQ3RbViKCw+evmc+D8BIRHHUC/G6moqeTsJMZK4EVSgcPHpRDhw7p9xY5BDGQsAxQ5ij9PBS/UghZOYoICrOloDhf8orz1GvkylczybzCXP0dlD8WhbYg0tMir/p6/3uee3RwTNoUOZzef06OvnpSLp9qloGeIZlSCiUZWHGLsqJCqa+q0ESxQVkXa5c2SK2yLkj7wQl5rJqy+tJcBv2TVUiDI6PSr/pEq7IaTl1qkuPKaoAcmju6dEJFP+INGYrsi8oKZMnaetl0xzpZs2Ol1CiyyC2MKNSI1XD9pvUQ/f5a5D0WhCYLNSkYGRyVYWVJDvVHrhH9Oqz6xrgijwlFKBOKTEZ1X4FkrgdgefDcjF0C3RAEiQchDGIYEAj/ZpGF5c7xQhRG193UddqSiKXsYiEZwQEqBdyYSYkKDlAOl5s6JSo4EF0OdeJzyIFYA+SAWwkXE9YEz+cbOai+T0fEIsjOU0SQr4hBKf+SikIpU7PDiroyKa4skvyiPD175HvaGsCC0BZFplYcaeoe0+PIPVQVppTC6Ovol4vH1Wz3nbOKMM5Ly/l2rTyuK6WSLFgiW6ysC+IUS2urZVldjV5OC3nUKesCIinMy5PC/Fwd9Lb6VSqD/kHweXB4VJ8GBwG0KAsBMmDZ6sWWNrnU2q7jD/3KamCJa7JIU6TPZKBuRbUihhWy9pZVsmxDo5RUFUsGy5A9tj3d97pSSEwIsBwmlAUxiUWh309qq3J4YEQGuga1xdnd0it9XQPaRTk2PKauCIlAOr4NBdWB8ZtjRaxdu1a2bdumyQIrA7IgpkEs0ILRdQmSBB+4EV6yggMoN5Slk/CSERxAcG5YNhmSANSFclmVhCvpwIEDN8iB5Hk8V9JQg5nYAJZBdn62VvyFpflSooigtLpEuw0ghiJFEviZNTmo70EMWAdBAL80SqG7pUfOHLwgx14/JZdONktve5+MDY3pGWiyoA1zsjJ1QBvSgBwgjgZFGJDGkppq9XeplBQW6DMushXxZWUq4syIpImYLdDnxqeUIp2clHGlUEdUH+gbHFIE0CuX29o1KTSpC0KALCAFAtScNe1GqTiBNs9R1iR9Y+m6etm4Z62s3rZcylUfoe9gdQYB2hzCGFdkMKwmDJDDQPeg9LT16QvioH8M9g5HSEP1H1xXxDz82BIOWRCfwLLABXXLLbfIxo0b9edcluI2us4dLF33npgElbIryA/BAaux7ISXrOAAgqNOdh0iUcHR+KxEIiBNdtV33nlHX1gRkMPMZ0kEDHZiByj+4ooiqawv0wO9rCZCDHzGTDG/OEIMWAdhA8thqG9Yms+1yfkjl/TVdKZFKYV+7b9m1ugXNGkoEigqyJPSwkK9s7umolTniapV5EGyQcikRM0eCXyzD4N4Bq+Z6pULtxYBce6FfImL0E+coAe7ulCE9FsCx7iBJhUZcLF/gbgCrwSe+4aGtPInqV6rIgPyKbV1qdl1/4D0qpntwJAiBZ9XsuESxN1YVlMsDavrZMXmpfqqX1kjBSX52rIIG1OTV2UU95QijBFlZfRPWxk9bb3S1dwjnU3dN6wNCMOPyQV7LiALLIvdu3frADfv+YwVO5ZeMLrOHpaue1/gmpvEK8gvwQEn4fkhOOAkvEQEh4+TTW5seNu3b5+8+uqr2nrArZQsOTCQCR5jCRSVF0pVY4XUr6qRuhU1UtlQrj/LV6SRq8ghI9P9cwcK1YPwWQ/2Dkn7lS65dLxJzh++JFdON2uFAFngovI7gRBti6VRrEiB4DcrpiCHvOwsKcjL058VKyuDV6wN3FO5SoFo8lisSAPyUG0PcWjSmCYP7mvNACEDXjUhqLafhAyuRshgdHxcu4+wEggs90+/DpFhd3xCkwUrkfS/KdLAUuC+vkLxG64jyIGJQ+OaelmxZaks3dAg1arvFJYW6JiTV9dSUCC4TX/QbillZXRc6ZaW823SfLZNve/Sn+GWImierOuSZaK4nLAm7rjjDu2GWrZsmd5rwZg3us4e3CcmSYB4wvNTcIBKccUSnl+CA3bC8yI4Zh7sZWC1EiuVIIf9+/frsxoIVicKng+Fn5WXpd1IlfXlUru8WupWVuvXCvV3cVmB/nerw6UqIpbFiHQ2d8vlE01y9tAF7YZi1kjMIowVMACrIU8RgiYNfeUogsjUxJCRHiEGXHicsBexMpT8eVX/DllADpoQtKWgyEG9cja0Xg6q+sHUtQhhjI5PaneSJgQuRRx8N2jQZ1i5hiVZoSxM3Eqrti6XJesbdP9hmetsWA5ewLifGJmQ/p4h1T+6pfVCu7Sca9ev9B/cUvw71kgyfYZ9EuytILgNWWBZEPDG4oBIjK6LDe4RlyQABc00x/wWHKBSYGYn8FNwgHJQsDPr5EZwPBv3xo2ExbB371558803dfoMJT9bs9UODGKCyvnFeXoWWLOsSrsJcA9gNRRXFOoZIm6EuQjcC7gTLp1UZHHwolxSpNGpyEJbFkq5+uFaSBaRQZWmSQPCsKwKy3rQxKBeedYwyM0JPCvLk+kXuB+XKlJYtW2ZIglFDqrP5BXNzbM8cEvSL3BH0WdwX+K2bLvYoa3R4f4RHRxP1LpAn7HzmnQft956q+zatUsHt9mQx7LZmcp7oeq6aDiSBJhJFEEIzoI1MC34LTgQUQjvZVknwfFdVkdgLbz11lvywgsvaOuB5axO5cWDRQ64jlh5woqTJWomWL2kUspqSjVpsJltvoDBjyVxWZHFheNXpPlsq3ReUTPFvmG9pFLPFEPeoDWXQKAZS5Mly4UlytJsLJf6VbWyXPebBm1JQBrzBWzmgxSIW7Rf7lT9plmvpGMFHe6oZMjCckFhTdx5553aumA3N/rGUuJgIeq6meC3jiQBuKlVUNCCg2Etlg1CcGAmy8YTHM/BhhXSchN3ePHFF+WNN97Qq5aoUyLQ5KBmgcXKQqhTg3y1mgGu3LJMu5QIQmdkLX5PR51vgBB6OwbUTLFLmtWAbz7TqglDu6KGRpV1wY7e96Z5XqigHzBRyMjOkLyCiEsJYqhfrS41sahsqJDSqiJNHPMVegxOXFXWxYB2QZ07fFHOKIu0RfUZLA6W4SZKFrigSPHBCijIgqWzpCpH7lr2C0jXxYNrkgCWRRGk4EC08IISHEB4FsvGEhwsz/2wHrAcnnzySb3vgfxKM004N9DBaDXYSxQRMMjXbF+hyaFuVY0UK2tirrqTEgXyZaNVT3ufdifgVmg+1y5tFzr0EsnR4TFtXVy/mhounrCgB/XiNG01sPeFJaw1y6ukfmW1dkPijixTn7EJjrGykIA7ql9ZES1n2zRZnD5wXk8yWBnFJr9EyAIdgAuKFB8PPvig3HXXXZo4yL/EKqiFoOvs4IkkgHXzIAUHqFTQgrNAnQheRQsOEiDOcPToUXn66afl2Wef1Utc2Z7uFdp/nKXIoapYGtcoy2H7Sp0OoW5ljd4Bm+qBxTCA5cBu3Z7WXjVb7JArp5q1P5pVLxHXQmTzFReKYD5xhurqug9EdrVH9sFEVrSV67hU49p6ZWUqYqgt1bvm55MLMlHQB9jh36L6COlhzhw4J1dOK7Lo6Neb/BKJcxGTYKf2vffeK/fdd58mDfQPq6C8YK7pOifcIAn1kK6HHQ/GA3qBV/YC1sN5Ab5GuyRfsUDVWcpqgXLZ94Bb6Ze//KWOQRB7YD+EF0R8yBlq1lesfcZrdipy2KbIYcX0evWANjPNdbDsEWJggx4kwZJIgpjdbZFNWOzHIE+QJg2lDBJ1NcwmNClMEwN5tOgPekNkTakOPLPkGZJgPwyEwXJog/eDVB/0B5bPsiji9L5zOubV067IYnLKc4wLy6G2tlZuv/12eeSRR3Rgm93aXnTXXNJ1bkBdqJMnkmCWDUl4YctEBAesCrl9vEQEB1i6Sn0gAnZNE3v4xS9+od1LPIMH8Wgw22PgN6ypky13rpf1u9fomAMb3pg5GLgDFgZLZvs7B6Svs1/v2GVZJAHvLkUi/E1wk/0ZKAyUwrvXFXGo9kqFIDgTBb1RLy0t8l5d7FdgUQKbIdkhTwCa5ar8XVJZrFOpsKTVWAzuwfgc7h/VMYsTb52Ww6+ckKbTLZpA6ENewPhkVs9+io9+9KPa/USQG/3lZuzOBV2HDp+5kiseEiIJi/WsGIUbJCo4NqzNDPDYIVHBse+B1UvsfcC9hAWBe8mrxYQSIA0GidM23bFeNt+xTlZsWabdSgbJQy+RVKTR2xEhjG5SPbT2agIZ7BuRYaUUUBbDA6R8GNff18Shuo7Vh270Iz6L/J93KF2hVL9+1X9CBDcu9bfqB1gJbIbML8qP7IZXk4bCkjxNBLiOyhUpQAylVcV6U+RCi0kFBdxQ5w9flCOvnpSjr57QiSgTSTBICg+Wxz700EPywQ9+UO+xcHMmRarrOnQ3ept6uCGKpEgCcAMKdPp5MoIDVoDOqVKJmmAc+MOehyeeeEJee+01bU14cS8hcDY1MeAJRm+9e4POlcO+BzP4g4NeXKDIgF3ebN5jB++IJgn1Xr2O9A/fyFI6rDOUjumlk+z8ZkOfPicBK+Q9cQ5NHRHyuMED0/+vXnAV6Yy5aqZPm7PTmaXMBJLzi/NvZNnNU++tVCl5069sbmP3M+Sx0ILOYYLJAfsqyCV2aO9xHeRmYuF1EyfuJ1Y74X569NFHdS4ogtx2RJHKug6gu9HhVh2c5JE0SQAsCipkd4tkBQfcVMqr4LgXy1t/9rOfyY9//GOdmA+zzw3DWsC3TNpt4g7b7t4om/ask5oVVTqJmsHsAeWvUz9oghjVgXGSDr6fJCJEwd+859+uaeJ4VxGCsggUCUAEuH8gBQiC9zNJgmR6BJY1MSiSYM+CToVhMGsgeWDb+Q45+vpJObj3mI5XkN7cS2AbpU3wGoL4+Mc/roPauJ/iEUWq6joLFklYoH52+s4XkgAQBbeIV5gfggMIjyteOV4FhwXxk5/8RP71X/9Vjh8/rg8I8gJcS2yE2zztWlq+ealOqRGvAxnMAlTPnrYN3ovpj/g3LAmLMKbUFSGJ65EAsyYJRQjTxMBn2tUEYjSz/jfT/CkD9BKpPS4cuaRdUEdePaE35OGC8gJWBW3YsEEee+wxHauoq6ub/pf3IlV1nYWZJAHsQge+kQSwsyj8EhywFHCscrwIjsR83//+9/VFem8v8QdcSEXlBbJq23LZef8W2XDrGr0yJT2TsxmMhpizUF0qFqEYxT+3ga64NnlNr5A7/uZp2ff8YTl78IIMdA9p15RboF/YQwFJfPKTn9RxiplIRV0XjVgkAeJZFBZJpH9VYfozR3CjWP56KmIJZ2al8O0l4oONN7NHeNxvZjmU73QIOYxJUPrb3/62JojTp097siDYEMfGpl0f2C53f/xW2XDbGr0HglmmIYg5DrhAteHMyxDE3AZtyAZFFgiQ66qyrkznvuI8C1ySnMLnBugO3NHELJlUlpeX6xgFE2QLqaTrYgHdHYsMuH+scviMOvlCEoB/s1xP0fBbcEAP3hlwEhx7PEiv8U//9E/y05/+VO+m9hKgzi3IlpVbl8sdH90ttz28Q290igQhjRYxMEh1oDOY5FnnskAaHLPKogZ297sBRMFsHFd1T0+PXi7LGRWW3kkVXRcP8UgCoLe5b/S/+04SgH+nIGCRRRCC494QEgK0yrETHLulX375Zfm7v/s7nWKDgDV5mdyAdNJsdtp421q5UxHEtns26U1P7KSO1YAGBgapCcYr8SWddbmmVK84Y5GCPr+CpIEulsqi49hvgEXBUcW4Yzg6FRdQKug6O9iRBLD0t/WdQEgC8B1uHiRJAO7PfS3hxRIcn+PvI//S3//93+tXUm7EC9TMRFZupjSsrpVbHtwqtz+yS9bsXKWT85mlrQYGcxfoDc6GL6mK7FfBwhgfm9A5w1jE4AT0Cp4JJptkZCA+UFlZqS2LaPeTW/ih69zAiSRANFFQZiAkAayKACoTBEkAS3jWFS04nrWtrU2eeuop+cd//Ee9B4KNc/zGDdj5yrnAez5yi9zygW3avcRnrHAxMDCY22DTIxmZORe+vK5UcgtydRZilk2TA8oJ6BG8EVgTnEiJJcFBRoWFhZ49DMnqOrdwQxIgWn8HRhKA78KqFEalvMKN4IAlPIRmsTiWAiz/+OOPy9e//nV99rTrk+NU+7J6acNta3X8gc1xVQ0VerZBxzIwMJgfsNxPBUV5UqosCjY9Tk5e1Sk92FPjBhAF+d4gC3ZqswGP3dledF4yus4L3JIEoCzK4VqkKuluaq3ghSQsUJlEWM+t4CxYwuMZMQGJPXzjG9/Qx4y6XeIKCZA6gX0Ptz68Qy9zLSwrUHUw1oOBwXwGm+wGe4bk9P7z8sYT++Toayd1skmUpRvgcmLT3W/8xm/oVB6ceOeWKBLVdV4tFi8kYQELyXWqcIBVQKDGC6x9FTyclwdMJH0uQoDRSe/9ne98R++idksQuJFIpbH17o2y+4PbZcXmJTrA5WVGYGBgMHfBJkqsiDMHLsgbT+7TG/DIDeY2YSSWxJ49e+TXfu3XdDoPdJgb/ZGIrsNb4lWnet3HwZ4KFv2k/8mf/MlX3bIlFcZH5QUobgrDonBbDmCXoxdQDjGIV155Rb773e9qgnB7BkT64jSdopkA9W0f3qkJgrOCDUEYGCwc4EnArcwRsSRlJKswpMGeCjeqy3I9EfssLS3VwWw9E3eY8XvVdehTykI/WcFsN/C6iAgCIkCf/uUvf/mrsIsbRkqUJCzGgyjcVsqL4Lg3jcMyVwiCcyDcxiDYCEcq790P75BbP7RDHyxP7h2z/8HAYOEB/cSRsSRjJKjN36T2YOOdG72FviOQzQSVDXdcTkSRCElgSfA8XogiEZKgPulf+cpXtCXhZqafDEkAt+UAt4LjXuyE5KAgdlGzionU325AEjZOAMN6gCAaV9dJdq4z8xsYGMxfaKLIypCC0nx95DDJHknjQap6N64nZt9MWlHmWBNYFejNeHolUZIA6D+3RJEUSUx/5qjAkyUJwHvKcYIbwfGsxDxwLUEQHBjEOdRuwDnC7IHYM00QdcqaIGmfIQgDAwNNFEpHkAK+pFIRRZqyKHqGZERZFG5ORCQYza5s7oM1AVHEW8CTDEkAt0ThC0lQCDeJV5AfJAG4Py4uuwq5ERwBHDK4/uhHP9KHBbGqaWZZscCyt/pVtXL7o7vk1oe3S83SKj1zMDAwMIgGG2eJT2qiSE+Tod5hGRkYcUUU6Cc276I3Sd9BgDpW4DhZkgBuiMIXkrBuHi9G4RdJAD6zi1E4CQ6TjtPkyMP085//XC5fvqyF5wQaunZZdYQglAVRrQiCswEMDAwMYoEl8NFE0d81qDfdOaXxQMfh6YAo0Kmk74h1brYfJAEsouCKpVN9IYlooMBnKnc/SQJYlYoFO8EhpKamJr0XggODyOZKOU6ggVnFRIoNdlJjQWBVGBgYGNgB3cGubIhCzWv1aXcjA6OOMQqUOTFS4qYskeXQIpaiRus9v0gCWDo11uQ7UZKI+Qv+kYeIZRr5DcqxKuUGPBtBoVdffVUfOcp5EFgVTmB5G/sgsB72PHKL1C43BGFgYOAe6IvqJRVKh+yU29RV1VCuycMJ6CeOKMAlzspLYhXxJs5+AJ2KPnUT+3WDuDWEhaiIXwXZwSIKN8B8O3LkiBb4oUOHXO2FQGDMAHbcv0VZERBEtUnSZ2Bg4BnojZqllXpFJDndSBDoZrk88YmjR4/KM888oye2rtMEJQjL0vBDf9tq5rAtCqcKwcjnz5/X2Vxh5FgnOs0EBMFStq13bZQ7Ht2lA9bGgjAwMEgUEEXtimrttt6pJp6cUeEmrxsup/3798tLL72kY6huPCDJwC+icDV9hyzCIop45eCHI4c7AoYkSODnZLJBEPklebLp9nVyx8d2y9INDXpZm4GBgUEyyMhYLI1r6nQS0C13bXB1vj36ihWYbPrlYtOdm8U2yQCdahf7dQNPCf7YCm6xk1t4DZYgaARHWRYQLnEIyIGcTG+//bajucZ98opyZONt6+S+z9wh63ev1ifJOTWkgYGBgSsozTkxNqGTAj7zrb1y5NUTkWD2jIDxTBC43r17t/zqr/6q3Hvvva5zPFnAMvCaNJVn8mq58Ezo7/T/+l//61f5w81lKXAuFLebiy3pWAex7hfv4vtE1a1yyIXChrmf/exn8uabbzruqOY5OVRk7Y6Vcu+nb5eNe9bqVBuGIAwMDHyDUidkbSBTdE5etvR3DejL6eAidBs6DH1EanE22qH3ZurOeBf6Eb06U2/aXRCLV92t9Wh2tjt3UzT4cRiuJypDOVgUnClL4j7OqHaMQ6iGY2McpuCej+y8QRAGBgYGQQAPxfpbV2t9g97RG3Md5qPsnWDCS5YIztt3sj78ALobwvA6WU6IJNwEmf0AjNvd3a3zMUESZHmlfDvwXCx13XH/Ztl81wZ9kIiBgYFBkEDPoG/QO+gfJ/2IHmtpadEudPQb78PwdCSiuxOKZsB6XEFbFMQdsB6ee+45vc7YyafGCoO8whxZu3OlbLtnk5RWlUz/i4GBgUGwQN+gd9A/6CGnFU/osxMnTuhlsQcPHtQuqDC9NG5JKSGSAEFbFNybXdVkd2V9sXOgWiQ7J0uWbVgiOx/YInUra5RpFTwzGxgYGAD0DXoH/YMeQh856WH2fZF/Dj2HvoM4wiIKdLcbN1fCJAEoALLwu1Lcl2yuWBGcT+0ms+vizAypXVEluz64TdbtXq1TfhsYGBiECfQO+gc9hD5CLzkB/YaeQ9/xnjhsUJPvaFgWhROSIgmAQvfboiAWQT4m1hKzec7JzcTWeHZUs155q7qKygqm/8XAwMAgXKB/0EPoIyspoB3Qb+g59J2Vhw6dGoZFQTkEs+2QNEkAiILLD6LgPgSo2VFN+g03Bwjl5mfLqq3LZNu9m6Syvnz6UwMDA4PZAXoIfYReQj85AT2HvkPvcU4/etByCQUNvEF2RJH+VYXp947gZrBcLFApMNPP5XUzHT46GJUzIghWxyvPQlZOpizb0Ch3fexW2XDrGv33rEJVXVGmftUv+lKfXI8QqbnMZS6fL/6bHm/6UljEGtRZDEliPbDiiUfobuuTwd4huXY1/v4J6sFBRczsSSne0NCgdSefY1Ggey3wt9fNdABdGn2faFAOeppXC/zNMyxSH9781AEwG0rcDkTMuTmVBewu9GI2HTt2TP7u7/5OfvCDH+ht63Ygz3vV0kq571O3y92f2KOTbc0mOIikv3tQupq7ZahvRMZHx2ViZFLGeB1TJiSdxLW0DQwMbKE0MHmUmBjm5GZLVl6mZKtXcrVV1pdJUVmhqyytQaJHEcTeH70uL/zgNem41Kn0ov0Sfo47ffTRR+VLX/qSrFu3bvrTCDGgfwEb6XJyvO/9Qndb94gHa8WTRU7ob99JwgIWBUThhSRIoYsF8Y//+I9y+PBhx1hEXlGubLt7ozz8xftlzfYVs9Ihrk5d07ssWy+0q6tDms+2SseVriiSmJAxdd0gCcMSBgY+YdFNksjLUiSRdYMkSOnduKZerzaqXlohRaUFs5L5mYnj6QPn5al/fl4O7j2m03bYAQLYuHGjfOELX9BkwW5sC5ZODZIkgGVRUF6gJAEgByrjxq8GIXBGBFbE888/r3ck2oFdjUvW1csDn7tLbnt4h+4YYWJyfEqTwYWjl+W8ui6fapJ2NVMY7FZmpWpI7V5S39Pi5X/uxWxgYOABevbL/9Qr82D2J0AIxZXFUreiWpFFrSxd3yjLNjZKVUOFZGaHe1QxR56+8dR+ee47L8vlk80yNXEzL10skMvp7rvvli9+8Yty6623alKwgE7l8npQEXBLEgCiQG/n5eX5F5OIBb5PQW4sCTK8Pv7443pjiRW4iQf6BKbkVmVF7PrAdqmoK4t0lBAwNXlVm5An3jotrz3+jrre1u/bL3XJ6OCotiw41pDntwjCwMAgYExPxLgYf1jtY0Nj2vV75XSLNJ1ulT5l8aOTMnOyFFFkKt0UjuchU01omdQOdg9KZ1O39jDYgSWwxCeKiopk+fLl+tUCz48CR6d61Xl2MYmZsGQJQS1SM3bXaowHw/zwAsvysGMwrAish6997Ws6uu90kBBrkVfvWCEPfeEe7W4id0rQwGwcHhiRK6da5OhrJ+XE22ek5WybDHHWrfo3TQgGBgYpB5QpruiC4jypW1Uj63et1scHNK6t08HlMNzUY8Pj2t30zDdfkjP7zyuicHClqxn8nj175Hd/93flAx/4wHssBw4wwlvh1iqw4DU+zP0hq/Q//uM//qpbBWdFu70A9qIwHi4ei3E2BCfNsarJaeNc+mLOqa6UXQ9t0wRRVF4QuBXBrATr4fArJ+RVZTkceOmotJxrl7GRcU0QBgYGqQ3cvxPjk9LXOSAdTV36FesDkiBjNLotSHDQGTuwx0cmpKulR0YGR2zPx0ZnYlGUl5fL6tWrtQvKgvVvrHByaxkArytNuTckkQZBBC0gQMVixSYgEY7zI3cJBOFEWBxGvnxjo6y9ZaWUVheHQhDdLb1y4IWjsvdHb8iRV47rv/ErOh2CbmBgkDpgvDJuGb+MY8Yz45q/I4tKggN6Cn2F3kJ/ocfsgB5kIQ87sVnxGcvND1F4sQwShSYJELSyBZhIMyvFMlfOijh37pxmLTvg16tZVqUPEGLVArncgwQdB9Y/qCyHN57YJ+ePXJTh/lFjPRgYzGFo17Eax4xnxjXjm3EeNFGgr9Bb6C/0mE4pbgPcSmfOnNFEwYl2sWB5aYLU39qEsEyWMIjCqhSACdmGjhUBazqZTgUl+XoH46pty/X7IKEJolkRxIvH5I0n98uFY5dldGjcxB4MDOYBGMeMZ8Y145txzngPmii0DlP6Cz3mpMPQhxyVQE4nssWiL2PB8tIEpb9v+JkQGoWERRRUCgFwMDhs6WRFsGwN9l29fYVUNpQHvjKBZWsn3lIs/szBaYIYMwRhYDCPECGKMT2+GeeMd8Z9kEBvob/QY+gzp+W4WBO44zmy2W5zsTX5DiJ08L7VTRZJxFKIPEQiq5uowEzAipzM9Nd//dd6f4RTKvCymlK5/ZFb9HnV9atIAx4cSbDy4OQ7Z+XF778mR189IYN9wx7iD4skTckpIydfMnMLZHFWjqSlK3MwjSt4AjYwWEhgXL57/apcv3ZVrk6Oy9TokEyNDSuLQM26XU7qGJeFala/6Y71+rjjdbesCjSLNBZC89k2eeF7r8prP39HetrsF+ugc++55x75/d//fb1/An0ab6MxOlrv04pR90RWN6G/Yy6BtRTwTPePnyTBXohvfvOb8q1vfUsfT0rF4oF1xnrJ66/crZNm5RXaB32SAefTXjnTIi//+E1565cHpLO521UMAnJNz8yR7MJSyS2plJziCskpKpfMvAJFGpnqylCdMfwdnwYG8xnvXr8m1xUhXL86qQhiWMYGe2S0r1NdHTI+0CvXJt15AFgGS1K+3R/cLnc9dqs0rq6T9IzgxuvI4KgcfPGoPPOtvXpJ7KTNBju8LkuXLtWb60jXwUonu2wU8YjCV5IAKD3IIlp5+0US3JMj+/72b/9WWxF8xw4cB7gHK+JTtysrojbQdc19nf3y1lMH5KUfvi6XTjTZNp4FlH9WXpEU1iyVovqVkl9Wq8ihUJFGtqQrmfHvixapZw7BlWdgsKCgFOG7716fJgtlTUyNy+TIoIx0t0p/8zkZbLskEyMD+t+dwGR06foGueeTe2T3w9ulpPLmslO/wcSTFD7kdHpdWRPdrfbWREFBgbYm/uAP/kB27doVc+IdjVhEkShJxNW23Jwr1rLVZMFSV1Y0uYlFsAKgemmlrNy8VLucgiQIUm2wM/P4W2ek7VKnTE06EwQWQm5JhZSt2CTV63dL+fJNkl/VoC2KjOxcbUVoC8IQhIGB/1DjivHFOFusxlt2QakUVDbocch4LFuxUY9PxqkTGO+Me8Y/u7Qnx91nl/AK9Bj6DL2GfnOz0onYhNtD2FDw6G4/3PK2d8DdFARRXL58WQ4dOqQDMXZuJsABHss3LZHGNXWB76we6BmUs4cvyuWTTTrFRhQJvx/avZQteeW1UrFym1St2aEtCeIQacatZGAwa4A0MtQ4ZDxWrdmpxudWPU4Zr3aTNcY74x4PwtmDF3VG5yCBPkOvod+cDkpDT+KiZ6XTpUuXpj+1B0QBSSS7GMmRZqy4hF9EgS+NZa9YEbyf6TeLht4Xoa2IZYFbETwHJh8EwW5Mp5S+6WpmkldWoztg+aotkU6YYY5MNTBIFTAe88pqpXzlFjVO1Rgtq9bj1g6M+341/iEKNtkFuWH2pjWxTOs5O2sC/YTXhTN2sCjsYhLRsIgiGYsijQROThd+LF4pCLPHywW5RN+rv79fkwSs6ORXK9RWxFKdxTFoK4JU3p1XunUmV7bO20HHIApKpLRxjZQtXa+D1KxgMjAwSC2w0jCnpFKN0w1qvK7V41a7f23A6sb2y536csqxlCwi1kSt1nPoOzugL0lhdPz4ca1Ho/Wq3YX+JiUHu7Zj6eh4FytQ+X0aqbzdXBRCrhDMHljM7cVvou9DJSEJkvjZWRGLMxdLzZIKWbEl+FgEGOwZkpbz7dLfNWi7oQbTLSMnT5myy6S4cbVkF5UZ95KBQQqD8ck4Zbwybhm/di4Yxv9A96DOz4Y+CBKWNYGeQ9+h9+IBfclWASwJ9Gi0XnW6rASBsXR0vAtdz289aV4Ei/spUdeTZS5dvHgx7u5BC2RsXLKuQepX1kh2wFZExNXUI83nWvXmGjssSlekV1wpxXUrJa+0xlgQBgZzAIxTxivjFsufcWwH9EDLuTa9h8FuMusH0G/oOfQdes8OWBPEJNCjTot+ZgLd7WV1kwXP0/Nkgtmw39GjR7WryYp1xAKbWziKFKGVVBWrsoK1IliORpZXcr1PjNmbl4uzCFbXSH55rWL9YMnLwMDAPzBeiSPmlVar9/bxQ9zPTBx7O/pd7ZNKBug39Bz6Dr1nt+kWvcmCH/Qo+tQrIBm8O16ILyHtmwhR8H2C1eQgwd9l95AcCFLZWCG1y6okN9/7MX1eATHgbmJlw7WrNuSFqyk7T/JKqiQrv5gPpv/FwMAg5aHGa1Z+keSWVjm6nCAGrImh3iHHiaMfQM+h79B76L94QG+iP9Gj6FMvyt4CXhyIwi0SnqJ7JQp8aVTswoUL2tdlB7bI1y2vltKaYsmw8dH5hbHhCX14EKfK2QETNVN1MvybejmdgYHBnAJpcnKKy9U4LnZ0OaEP0Avoh6CBnkPfoffQf3ZAf6JH0adO6YziAYvCrespKT+OW6LgOy0tLXLkyBGd1M/O1ZSmTK3S6hJ9Ni0HguhDawMGp0aROtiJJNIV+2blFUZmIT5sUjEwMAgXeg9FTr4ex4xnO6AP0Avoh8Ch9Bz6Dr2H/kMPxgP6Ez2KPkWvJmJNAIso7CwqkLSmc0MUMJ+1vtcpYJ2Vm6XXDJMhMTsvnNk6J8xxNOnVKfsluWlq5rE4O8/shzAwmMNg/DKOGc92QB+gF9APYQB9h95D/6EH7YAeRZ+iV508M3ZwY1H4Mh22LINYRAGBDA0N6UCLG1dTUXmhPoeWQA5H/oWBidEJGRsiHmH/bGmqfgSuSQFgYGAwN5GekTmdndlev6AP0AvohzCAvkPvof/Qg3awXE7oVfRrotYEgHDsiMI3nwkPHcui4DOi8PjP+vr6bCujVzUpU4sATk4IAWvvwCxTl711ZmBgkMpYxA5kpadIupliQO+h/9CDdquc0KPoUzbWoV+TIQlgZ1H4KqVYFgWfNTU16XxNThXJwdxaXiVVSyolOze82ToHf2TlKgvBYamtzlk/MSbXHVxmBgYGKQylkxjLZI+1A/oAveB0MJCfQO+h/9CD6EM7oE/ZM4FutXRvMohHFL5TqeVOsoiCv6kIZ0Y4kQSpeRtW1UpxRaGkL7Y3Bf1ERlamapxs27gKIG89OeuvTYbjozQwMPAfEMS1qUnH9OHoA/QC+iEsoPfQf+hBp1Tl6FP0KvoVBe8HYhFFIPaWRRREzTGJzp49q6PxdiRBgB1/HGlznRjUb2SpmUJOXpZqIHtxXJs+2OTqhCEJA4O5CghCewSm9VQ8oA/QC+iHMEE+p5pllVJaXWy78gh9il5lvwTpw/2wJgBEET1hDoQkAETBxRItAiyOZ1grtq6oK5WK2lLJygk3MMzmlWzVGZwCWcxAJseHZWp8RDWIfQczMDBITUAQk6ODcl2RhR3QB+gFu81tQSBLlVdeVyYV9WWOZZO0j0m4Xy4nC+hui6DSOHnI7cUDcbqR24sMgufOnXOV/zy/JE8fEJ5fku8YG/Ab2flZkl+c67yaSjH39SnO0R00LicDgzkI4hBM8iZHhrT72A7oA/QC+iFMoP8KivOlqqFCChw21gFcTiRNHRgYiKm3rYskrbH0dLyL77NZLw3GwLxwc8FU+KvcXphDWBGwnBMKSwt0NsSwWRvg3ioqK9RmnlPe9WtTUzKhSOLqxOj0JwYGBnMF1yYnZHJsSE/y7ALXbGZDH2i9ELL7GxAs59jmovKC6U/ig4VBJE3FWxNLb1sXui2Wno53YUmwPDaNN3Z+r0QBofT09GiSIPe5E8ilXl5bErr/DxAsKlAkRYfIyLLfWMKB65PDA3J13JCEgcFcw5Qat4xf4ot24AAgTosrKM0PdRGNhaycLKlsLJeSyiJH/Tw4OKhJgviEFQ/2E2l++rGiAXNhBrnZNq7zllQXS0lVke3pTEGioCRPSlX5TpbMNWWictA6nc3AwGBuAQ/A5LBzPAI9wEIaN+6eIMBktVSVT1yCuIgd0K9YE+hb9K7f0L4VCknmeLtYwEw5f/68u3hEcb5U1JZJXiFb5cONR1jAB1hSXeJIEu9euypTYyP6IpBtYGAwd4AHYGIUS8I+HoEeIIcSemE2gPVAmg7itE67r4G1Fy0QS2L6VbuHnPYJuAWkg38MV1NbW9v0p/GBEIjmh72qKRoEziOWhL0lQ92uTU3o1REmeG1gMHfAvoipsWG9jP3da04kkaH1AXphtoA+JHjttF8CcEZPc3Oz1rtOnhuveM+0HRbyw6LgPl1dXZrdOKbUCcUVhXr5a5g7G2cCk664vEhZM7mO1gz+TONyMjCYW2B/0+TokJrk2StSxn9uQY6avBZJtkOivSCBNYMlUV5Toibw9joJPYslwQonv62J95WMRZEsUfCQnJ7E5RTzIChEcAb/X0bm7JEEVhRBKqyaTIe4CEvnJkcIXieWy93AwCB8TE2MyoQat05pdRj/TFyJR8xG0NoCZbPqs6K+XHLV5NUO6FkC13hu/F6IFJMNKJAlUIkCkuCBWd3kBBibAA2vsxWPsEA+d0xMJ7dXhCSUJWGWwRoYzBkQj2DcOsUjGP+llcWO500HDXR9pnqW8jqWwjrHJVhFis5lP1sy+nsm4mplouSJFgRJ8LCk5HBCvmqI4ooix9l7GOBZSqtK9PIzO7Dbmg05+DdN8NrAYG4Ayx8PwHWneIRSzHg28ovsZ+9hgJWfJUo/ulllBUmQngP9m4z+ngnbqbtVkFfzhYfkYV2RhJq9s0ciPaSzI+zA7ko6R6ZTBlodvCYuwaacsekPDQwMUhVM5tyuSmSSyJL8vFm2JAAuJ7JQ5BU4H50ASaBz0b/AL6Jw9O9QEP56t0RBQIjlr1gSHIbhhDzF1vjdFmf4Zx4lCk6DwhdJ8NrJF3nD5TRmXE4GBqkO8jURj2BlIpO8eGDco5Nw78xm0NoCSQYL1OQ1xwVJoG8hCfSvFZi39HcySINpnC5AHg9AoXYX/jAYjZjExITziU6YdEVl+aGdQmcHAva4nEoUUTittLpOXVWnw+1kYGCQ2tDxiOEBPbmzA+O+WBEE8YjZjpECnoGDiPIKcxwnrpbuZRlsdAoOJvgZGRmaOGLp7HiXFZtOi5XYKdaVk5OjE/ax1MpKGBXrYgkW63UhCaf1upEEWnk6cp8KDQIiwesSx1kEfs3IMlhIwt91yQYGBv5ianw4Ykk4Bq2z9EKaPKUHUgEo+MWZi7VecnMIEToYkkBfR+vvvLw8TSIz9bXdZSV09aSZeWAuuyWyVjwCsnACDElAhqC1W3dW0MDUJC7hOnjNumvFugYGBqmKd3UsQqcHd4hHcDIc4x89kCrA5aQn0wXOiQatFU5YAjMBiVieIS/wPH2HBFDo8fxc/Dt+MTckkUpBawu5yqxj3wab62x5SwlcB68hCRO8NjBIWeAaZpc18UPb0+jUeCcVBuOfuGSqAF2bR1xC6SYnWCRhBa9nAvLwGqNIyMdjPUCswngISIKHdQLxCILWTr62MMGBHwStIDDH4LWalZjgtYFBamPKOmSIzK82LvDFBK0VORCTmM0UQTORhiWh9FFevjNxoXvx5MSyJCygv71YFAkHAiyLYqbric9hMjeWBEvMUo0kiI1E9m7QUZziEldlQsclhqc/MTAwSDWwn0nvtHbM15Spxz3jP1VipIDJOElQ2XDsBGvRUDxLwoIXiyIpSVDQTNcTD0d+c040coK2JMpmd+t7LDCbKGFTnUPwmoywzFDohHYzFAMDg9nDVeIRpAe3mV0DFqsQj3BKgRE2IjGJXO0KdwIBZybodpaEBXS1G6JImi6jLQoCI6zRJbrOqx34DZWGKBBCKoHnYjONUx53gte6A44OOc5SDAwMwgc6iXPpXQWt1XjXK5tcKOMwgVWDFcFJeehNO6B3x8bG3rNXwg7ob5bH2sEX7QxrQRJUgIdzIghAxTHvFmemzsomCzQIwSuWnNk+m2oEMsJOjQxpv6eBgUFqgThEZHyOquEaP9ko45zVlqTlzi1ILUuCZ2OzMQeyuXGDWTrYDUkAvmsXo/BtCm+ZNzCTG1MHFxP7JFKNIAAbavTRhSVs8rMP8FguJywKAwOD1ILeRIcVwUl0NkrT2rPFmdKZObOfR24mIkSR7so1j/71QhKA38QjCl/9PBTEBVE4gQqjgFOQI7RVxDppEg9mOeRxuq7qqoPXxCUMDAxSCjeD1vYTV1YzEbRmE53dPrDZAnoSfYnedEIiJAHiEYWv0mAbN/EICnNCxJLwnjwwLGBykjbcaZejXgarZiqTJng9p8B6eU4WZDPkxHC/jA/1yfhgr4wN9KirW7/yN5/z7ygb8v6863A+ikFqQW+iIx2Hw8Q1sj8icmRBKsJyObmxJCAIdks7neUTC+jumTEKX0kC5uIBuZzABrrFmarCqUoShTl6hROdxw74OSMm7ZCyoOwPVzeYXaDgIQb2toz2dkh/81npPHNA2o69IS2HXpbmAy9K077n5co7z+lX/uZz/r3zzEH1/XMy2tcZaetJQxipDvQRk7dJjiu120SnwDjX59qkWND6BiAJpS/dbDxO1JKwwG+jLQrf7Soe0I0lwcYVHiRFOUJbECWVhc4rClRDsPN6Simeq+MmeJ2KQEFcVeSAhdDXfEbaT74tzYf26qv16GuKBF6X9uNvStuJt9S/vSUd6t951X/zufr31iOv3vgNv+c+3I/7Oikgg9lB5Cz6IdVGY7aEzvgm5UVJVZHk5qeqJYHOJGFf8CQBuIfldktjuZTbi4JJ8hfvsswUNzEJzKb0FHY3Ebxmo19hab5OsGUHlMSE3i9hgtepBKw8FMVYf7f0XjqhlX2zsgxaj76qLIP977EMUCSshKEt+R2v/M3n/Pton7I8mpTlcXrfNGFgYbyu78v9jWWRerjKIUPD/ZGd1jZJOJmhFxTn6/GeCoefxQJ6En3pxt2Ey5/9EiRjjdbf7ImIpbfjXda90kjn7fZC+ZNdMN6VnR2ZdbvxhenAtWqcVCUJnktvqqssdhGXuKZdGJNjzudnGIQDFDa+6N7Lp7RSb1EWQMfJd2Sw5YJMDKE4nK3d9+Nd9bsp9fs+dZ/z+n7cl/v3XDou40O9jgFSg/BAviYWlTjGI3KzpXg6X9OitNTVR+hLN4Fr4hFsZp6pv5nEx9Lb8S6Oh+BeaW63ZruBFZNw427SMYkUtiQAB31gguJyssO716dzOKlOifvJYHaBoh7t79TxhpZDL0nHqX0y2HFFZ+21WyvvBdyH+3Ff7t9y8CXtmhruatFEYjD70PGIkQFtFdqB8c1OazcH+8wWNElgSbiMSXAl426ywIQ/Desg3vpYr/BEEvjXqHDqcoRe6cDZEs4kgcKYDl4bBTGrYOf7QOt5aT64V9qOvyGDbZe0yygw8lb35f6DnU3SfuJtaT7wkvQrK8NYFLMMSFyRBNe7DpYEngIdtE7ReISG0pPoS/SmE9C/ycYkoqEjE9zUD6KAdXg4dzEJTk5KXXcTyMnPiuy8hiQcHtM6hIiVTgazAxTzQOtFNavfK51qdk+swK+B4ghVDkuhuy8cldYjr8hg+2VDFLOIq5MTEet+Ykw1jY31qMa1TsMDSbg4r2G2oC0J4rguUhihf9HDiSyBjYUbJUIUfrme/Hq42QbmXUFpvj7zwimgpX3gowNq5mLiErMB/M7DXc16uWpf81lN2rMBXI9YEh2n3tHBbrPyaXYQ2UTXrzMi2CEjM0NnVnCzQGWuwO+J0XtoKVnXE0umCHY4JYwC169ek2vqCm2mlwBgb0zQsqoSR1MUZWCC17MDZD/W3ykdp1mxdGbWYwLsxei7fFIRxX5FFF2GKGYBuH4nhgcdZX8jHqHGdyp7NdCT6Ev0phPQ4ehhv3aOv+8uybieELJbkrg6qUyiSX+CK0HCbVALv+fE8IAiiqGUr9N8ArJm1tirlHLvxRPqfWosQ0ZBdZ87rJ6LZxo2fSJkIHMmbU7Lkpn86ZMoHeKOsw3dz5W+RG86AR3M5RfpxaSaRF1PPBQE4YYkpqauqkqrGV+Kjx1IIuKvdCCJd6/LVU7AUh0zsi7bIAzgThjubpO+K6dlfLhv+lN3oI8XFxXJ6lUr5fbbbpMPP/xB+cwnPyG/8rnP6tePfOhhueuO22XdmjVSWlLscUy8q5+H5+L5nNweBv5BW/XKksD162RJMK4jnoLUJgn0JPoSvekEJvnscwiUJACuJ69E4cXddFWTROpbEhxEUlxZqHPMpzmsob7ZOc2mujCAvMmv1Nd0Rka6WwmGTf+LPRg8pSUlsmPbNvnYo4/Ir/7K5+WL/+ZX5Uu//m/kN7746/Kb06/8/cVf+zX5NfXvH3vkUf19fud68Knn4bl4Pp7TSWEZ+AN2wbP0FbefnX5hTwTjmmXuTul3Zhs3LAmXJMHlRg+7ga3TymuMgsFjmTpOuKoqPDWhSOJ6apMEwWuODtTB62z7ekVIgp3XJi4RBog9DHe3yGDreSVzd1l4CwsLZcumTdpK+NxnPiWf+PjH5J677pJNGzZIY329lJWW6u/w2lBXJ+vXrZU7lTXx8Y89qr/P7/g933EDnmug5ZwOqpv9E+HgxiY6h0kDi1EKywsk38WRALMN9CT6Er3pBGuiTv39WIzkGNnw4nqCJNh17c6SIJ9O6lsSLJHTLid2Xju5nFSj0DlJKGYQLHDvsVlqqLPZ9VLX6qoque+eu7Wy//hHH5WdO3ZIdXW15OXm6j5LP6cPWxd/83mu+ne+x/f53Wc+9QnZc+tubVU4gecix9NQ5xWdusXJR26QPHRW5mE3m+iUFVERyaigmjulQT9CX6I3nUCftdJqQBSJxpgtOJIEcGtReHU3zQmSUNDJ/qpLnOMSqkEwc8lfb5RBsGBWTiZXZujEgpxQUVGhLIY75aMf+bDs3rVL6pWVkJuTI+kuV4DwPb7P7/j9o+o+D9x3n9TV1Ex/Iz6uqecbVmQ22tNurIkQEMn86iJorcazm4wKqYCbJOHO3YQeRh/r3yW5Dy6tuLhY3Fz5+fla+ff398e9OICbRFJuFH8kJuHfrsAgwdm3rIDIcxO8Hh/TsxgSyxkEBzLv4u+HKGw3Sykw47/9tlu1Ul+1cqUUqL5sWQ1eYFkXRYWF2j2F6+mO2/c4WhT0cZbCjvS0mX4RMCInRU7HBR36hSaJymIdd0x10IfQl25IIi8vT0pLS6VE9UtLf/MZSf9i6e14F8n9+K27adQ0YCM7RmIQubUkrk2pWff4VMrvlQBZ2ZlSXD59apXDGbOYuBxkQ5oOg4Cg+gskQaI9N7GIJUuWyO233iYrV6zQicu8ksNM8HtcUEuXNGoXVGNDw/S/xMfU+LBeIq3TtsyBidFcBTusyfyqD4iykTPjmONKmfxlpThJUA/0pNaXSm86Af2LHo7u57zn80T2Tnj6BQ9rF6PgAaw0s04Pg69sfHRCXaRnTu1BQ1KtyPm3hZKVY9+htK98evmdQTB4l2ys15hgRFJ724HBUVdbI8uWLVGzqdykCcIC98nOzpEljY1Sq+7vdF9cHyyN5rl5foNgEDlpcEDvW7IDEz/Os2Zcu8msOptAP6In0ZdOwXj0LnHhWDoY/c3llSi804qCFaOINTAgkIKCAj3TcsLo0JiMDIyo+zmz42yCekb2S7hwOalG1MHrEUMSgUF1dPIiOaWABsyeWKmkzWaPg8MJ6Wo2WlJSLOXl5a6sZ55X53NSz28QDJig6U10Dq6mHA4ZqojEI/yaOAQF9CN6En3pBNxKrLyL5/GxiMJLnRMeNVgUDLqZhUES+MLcLBGk0sP9iiRcbDWfbRCX0JvqiuxJQrFEZHWFCV4HBt3RlbJ1s++AWVV+Xr5kxJnUJAPul6nIoUDdn3KcwPPq5zYkERg0SajLiSTyCnJ1JoW5EI9AP6In3ZBEUVGRjkfE8/YAiyjcTpqSmlphUVBQdGEwGA/JwzohQhKjygxPfWVKZ4oEr+0tJITPahvtf54cn/7UwH+gaJ2VLbQQ4QZ/CeImWC7r9u7untkgMWClReKBnBtiL+dcDhTTJJH6K5vQj+hJNySBxVxWVmYbO7bgdh9F0vY3RMGMypqlUSgkwcM6IUISw/oeqY7MrEwpLC/UPkynIwSZMepNdaqzGvgP3d/SlGXgYibEiVzDIyMyNTXpqDi8gvtNqvsODQ/rcpzA8+rnnh4rBv6C40rHOa5UtYlqnOlP3w/chAUleXoxSmaO88bf2Qb6ET3phiTw4kASbpQ/sCb6dkiaJAAF8VAUxisP6YokBkdlmJjEHHA3pS1Ok/wi1bEqipxNVNVBmdGYTXUBQSnZtMUZWuE6geMXu7t7pL9/wDHo5xX0+96+Punq7tblOIHn5bl5fgP/obMwK5JwckOy+IRFKJEJny8qMFBodxMxCaUvnQBJECNzY0lYYFzYEYVvErJiFDwcBOGGJMZG1CxPmVF6F2GKW+HM/m7EJQqd90sQvJ5S1oSB/1B2hJqMZMjizGzO353+NDauK8K+fOWKnDl3TlsUflkT3GdsbFzOn7+g7t+ky7HDorR0Sc/IUs+ryM2lc8rAG24Gre3bgvGrM7+q8ZzyVp2qCvoRPYm+dAIk4RSTiAWIIh6x+EqjEAXrcy2ScGIzNoeMKHaccLG0KxWg4xJVRcqicI5L3FiKNwfqNeeAJZGRKdkFJZKRUzD9YXxcUiTxyquvydmzZ/UGoWRB+3Kfs+fPy+tvvCFXmq5M/0t8ZOTkS1Z+sSKKTGNJBARNEiw9dyCJvOl4hNNy9lQAehH9iJ7UWbNtgL6FJIgHeyUJEG9ntu+2FiY4Kz14WJZj2YH1v1R+aI6scMrKyYwEr1Uns4XqpJx7PMGmHhO8DgQo27zyWsktrdK+fjsMDQ3J2/v3yQt7X5YLFy/K6Oio42wzHvjd6OiYnD13Xp574QV5a98+dX97t+KiRWmSW1Ih+eU1kr449X3gcxFsUsSK4Phgp7bNU5M8crHNlZVN6Ef0pNN+MrJiYEUkkyY8FlH4ThIW8Iu5cTkN9AxJb3u/ToOb6sgga2RZoc4a6RS8vm4Fr/WO4MQUkkF84NvPLamS/Io6WZzpsCxZoaenV15Ts/6nn31ODh4+Iq1t7VrZu7Vg+R7f53cHDx9W93lWWyddXd3T34iPxVnZ6jnrFaFVR2ISBj5DTcrUOGMH/rUpZtvxxxsxCI4kLq4olMzs1G8L9GJPW68MdDu7rr0GreOBiX40UQRCEjwkjAZROKG/c0C6WnpkaiL1E59RL2YhehOOU/55NZux1mwbjvAfzM4zcvK08s1Rs3Q3K53alIJ//sWX5Ec/+alW8gcPH5Lmlhad04aBEQvXFDkQy2hpbdXf53c//unP5IWX9kp7R8f0t+KD58oprpSCqkbJyC1w9ZwGHqHGFzFAnVjTYX8E1kMkxU5u0so0DJCKo7O5R3o7+qc/iQ/0bWVlZdL1whKzFiOBNMwLt5cV3HC6cDc1NDRIVVWVLsQOMGRXc7eMjdgfEJISUBYcnay0ukTyi51cTvhISRs+qN4alggCzMrzy+ulqHaF9vk7gT7c1t4ub73zjjz+iyfkhz/+iTzxy1/Km+pv3EdNzc3S0tJ64+Lvc+rzt9/ZJ08+9bT+Pr/j9x2dnXGJJRo8V1HdCv2c6caKCASMrpsTMvuxpid5Vjwi1WPW19/VerFbTaIHe50zOJDOngtX00zdzWUtLHJzQRD07yllmaX/h//wH77K8j03F0ocvxfBabsLnxgFnTx5Ug4ePGhr0l+7el2vGFq6vkEzvJMbZ7Zxbeqa9HX2y+VTLdLnxO7Iq7xOCirr9eoWA3+BNaGXwqr/cDUQA3KaSQIGzMDgoLYEmhURXL7cJJcuX5YLFy7K6TNn5OSpU/o6dvy47DtwQN58+23Zf+CgJpLe3l79ezdIS18shdVLpXLVNh0/Ma6mgKDafLD1gvReOaVjgXaobKyQTXvWSuPa+pSPSXDIUOv5djn40lFpOt06/WlsoG/vuOMOufvuu3VKJJT7TP1Ncksm8LF0dqwLUiGrd1oQJhc3Jx6xfPly7XayA8SD0sXlNDkHXE74MdkrwZ4J+9iQMtkmx/XmnqsT45owDPxHmhocKOCSxrWSXVSuicMt2ACnYwyHDslzL7wov3jyKXn8iSdvXPz97PMvyIGDh9T32lxtmLPApCCnuEI/V4Qg7Ff6GSSOSEZgNc50enCbcabGa35RvpRUlugEf6mOyfFJ6Wzq1jFbJy8L8YjGxkatd+32PHgFE/y0mUEKvwATQRK4nZzQ34XLqUcmRp03JM02dPBaWTyFZfk6O6wdWP46NTKgg9eGIoIBpJCZqwb+ktVSumStZKj3XsEeB5a09g8MaEvBuvibz90Gt6ORmV8kZcs36mfi+byQl4EHqLZjfOmd1g4HOuGlKFLjtqRybgStJ8Ym9eTZTdC6rq5O61o3iSa9Qvfc6CCFX4B4li5dqnP5Oy3HYoVTx5VOvavweopnhCUPPZlgI8Frp1U1keA1eyaMJREc9KxdWRHlKzbr+ITeizCLYNNcSd1KqVDPo60b42oMDMyw9U5rNRljvNmBxSbFlUV6M53TuTCzDfTgyOCItiSG+pyWWC/SBIGuDcQzxP8haGZLfhbAvWpqavSDO2XInBibkO6WXu3jnwtLYTOVqcpxpuR/sQNdNtKBnVMXGyQHdjKzHLZq7Q5NFIuzckJfScRgZRd4cf0qqVyzI7LkNYBBaxANaxWhs7XOJlhcxeRhS3Ww2hM3U09bn0yM23tY0K94berr64MjCQBRcPlVCAOGdOE8POcL20K1bl/XgHQ2d+vdhakOTFU21RGXsAWzHNWBx4f6HA9BMUgeWBBFagZfv+1uqVi1RbILy5SSDicWQDmWi6luy51SVLPMBKpDAJMvnfmV/UhqvNkhb/okurngahofm9RLX/uVXnRiP/ZGMBlnp3UQoYP3TLWwJrj8KogACuzG5YS+jgFpPd8hwwOjjjsLZxuR4HWh7nROy+gIXnPmtT6s36ETGyQLaya/Wuq33iPV63frfRR8FnH5+L3mkWy06ZKu7p9bViPVa3cpgrpHihVRkTbEIGiwOGRienGIQ/I71fQFxfk6rQ6egFSGzkSh9GDbhQ7p68SNZg/0qxX7ZXLutzXxPnvccj35QRQ8LBUgqOIUcedQjaZzrdLZ1KWj+qmMxRmL9c7rInU5BYq0z3RsUNWJg1AMSYQB3Ey4eqrX79Kz+vJVWyVPKfGIC0oNIIcYmSPU77kP9+O+Fer+9VvvkpqNezQpLTIuplCgx5ayIiaG+xyD1hlqzHJcaXF5kWRkhmNdJorIqqYurQ/Ri3aInoijb629O36ucIp5J0jCj1VPPCibO1avXq1dT3YBbHKUdF7ukuazrTLiIm/6bIKgV25BjquMsGBSmcJT+EwNSYSKzNxCKVuxSRq23SsN2++VqrU7pbBqiWTmFET2V7DiyC1haGKI7MvIzC2Qwuol+n7cl/uXr9wiWQXOaWgMfMQ0Sbg5KjgnX43XSjVe1bhN9aA1+g89iD60y2lnufTXrFmjNy5bxIDu9tOiiCsty6JIpiAelCR/69atc7XKqbe9T29SI1VHqif8y8zK0KarU/AaTKlOTPCaTT8G4YKEeiQBRInXb71bGnY+IHVq1s9KqPzKer0jmngCBABpvO+CGIg3KGIpUARTuXqbvk+jug+v3Jf7m8R94QMddSMe4YC84lwpqlCWvxq3qQz0HvoPPYg+tAP6FL2Kfi0oKNB/W7AsCj+IwpZS/bAoYLeVK1fqy4kkRofHpfV8m7Rf6pTxFA9gZ2YtVpaEIgniEg6YGB3UwetrLnfqGvgPFH12UZmULVsvdVvu0Ep+yS0PypKdD0rDjvt1DKN28x1SveFWqVq/S7/yN5837LxfGnep797ykHr/oPr8Tildul7fL6zAuEEMqEkXqcHdkESB3kRXnPIkgd5D/6EH0Yd2QJ9aujWWe8kvonBldyUTo6AitbW1snHjRr372okoetr7pQUBDaa2y4nOxulWeU4rnBQIrnFiFsE1sxR29pGekS15pdVSumyjUvi3a+uiURGGJoJdD2ky4JW/+bxhxwNSu3GPlCxZK7lF5bO+D8NAQVkRZDJgp/XUuPOJbQWleZGgdYqTBHoP/YcetAN6FH2KXkW/xtOrEAUWVzIxijRyMTld5AJhLS6MRMZMLxd5nMhMuGvXLh2bcGI1dhc2nWmV7rbelN4zwW7rwtICvcrJzexkcmzE1TI9g5CgBhUDS69OWpyhg9CZHAyUV6QPM+KVv/mcf+d7eiDGGYwG4YLJFllf9fJyh+NKM5TVT144FposzvTHTx8E0HfoPfSf0y5r9Cj6FL2KfsXdFEt3c6G/ydtE9oCZ+tnuIt8Tv0/DQnB7WSt5ojMLOl0wGCk68Jtx8d4OpMZtvdghzWeVNZHCAWzqpYNh1aXO+yUUyHc/pUxjc1JdKmOaBG6QgSGEVMWNeIS6nJBXQObXEjVes5OaUQcN9B16D/2HHrTDTJ0aS19HX+hu6o5lEUtPx7osD5JniSXiemIGhkm0detWHYW3syZo/O7WXrlw9JI+bCOVA9jMUIhLFJY65wuyVmFQPwMDg+TAZItd1lMk9XNAfnHkkKGMzNR1NaHn0HfoPfSfnZ5Af6JH0ad2rqaZQHdDFG6/byEhkoCNnNxGMwHbrV+/XgdZnH7L2uBLJ5rkyqmWlLYm6HTs4HS1wklZEqSzvn510ricDAySBC4mffLjuHPQOp94hA5ap+4iA/Qc+g6957Q3Av2JHkWfOnlmZiIR3Z2Q7QXLcXmxKGAvfGgEWvCR2bEZya06mrrl3OGLmlU5cyIVwaYcgtf5bnZeT03o8w6mxkeMNWFgkASIR7AIRKcHJw2/HdS4JHZYWl3kKnY4G0C/oefQd+g9uySn6E3iC+hR9KlXqwDgSkJ3u/1twg66RCwKTKRt27bpLeSO1kTfsFw63qSDOKPDqWlNkHq4oESZsuSDcUgaBjFENtVBEiYuYWCQKCKuJhJn9jsGrfV+pooiKSwpUIrR2ww6LKDf0HPoO/SeHdCb7K5Gj7o5+TMeIAru5WbCmlQUhwK8xCj43oYNG/TFqic7XJ26Ju1XuuT8kYvaV5eKKcQXpS2S7LwsfZypO5cTK5xM8NrAICmwP4IYn4v9ERxXStwwS41TxmuqAb2GfkPPoe/Qe3aw3PboUK+x4ZmwLAonJEUSAKLwYlEsW7ZMbrnlFp2uw+k3Q31DclGxa7Ni2TGHjSWzBeISpOfApHUCcQk6N53cwMAgMejDvFwGrS1LP1XzNaHX0G/oOfSdHdCXWA87duzQetQPoLudVnwlTRIAouByQxSks925c6dmQ0drYvKqtF/ulPOsdGrv01ZLqmGx6nysnHBlSYyP6LgExy0qgU1/amBg4B7vqtn3VZkYGXRFEoWKJHA3MU5TDegz9Br6DT2HvrMDVgR5mrZv3671qF/gOeyIwheSABTE5UQUPIy1CYRzJuy+jx4d7FHWxLEr0nSmJSWtCTLCap9neaGqm705e52zeG8Er401YWDgFaTR1pMt0txMOaStUOOxSI3NEmXpp6IlgT5Dr6Hf0HN280b0ZHl5ubYiVq1a5Tj79wo7ovC1JCtG4UQUHJKBNQFZOFkTUxNXpfVCh5zad046HLIizgbSF6dJvpqtlCqTNivHKXgdWduNy8nEJQwMvCOy9JWT6AYdx5A+QVLvYyrQi0xSCegx9Bl6Df2GnrMDepJlrwSsSccRBNDdrHiauerJXzpScBOjYPcfOwVhRSpsx4rcr797UM4evCjnj1xyXEMcNhAo5MBsBbJwwlU1CyI2YUjCwMA7IvEIkvq52ERXlKut/Ew1PhNZKhok0GPoM/Qa+g09Fw/ox+LiYk0QTKydzrBJBjzHTKLwnSQsQBR2a3EJXONygh3dxiZg3Zbz7fr811SCdjlVugxeK5Jg5/X16yYjrIGBV1jWuJukfmRC4EzrxRmpZUWgv9Bj6DO3sQiOgYYkvOywThQzLYrASAJYOUBiAWJgQwgVhyWdfGwc53fh2GU5c+C89HdxNsP0P6QAMGUJXrtJz6H9qSMErydsZw8GBgYzgJdialK7mrDIncCkjYwIKUUSasijv9Bj6DP0mh3QiwSpN2/erL0veGhQ4kHrDspAd1NO+h/8wR98leyAbi5+yElIZIR1e/E7sgmOjo6+735UeGBgQM6fPy9dXV1xCQXogJViXBRyWW2plFUX6xl8KgDCZXbAZpgrZ1psGxBzObugWAoq6nWWUQ61MTAwcAZWxPhQr/RdPinDXc2aNOKB0+dWb18hW+/ZqF1OTpPQsDAxNiFnD1+Ud545JBdPNMnkmP1RzehQJtOf+tSn5I477tDZXtGTExMTMXWq3UWmCyujt5sLT9DY2BiyC154VCrWpg0eZNOmTTfS3ToFvMdHxuXyqWY5+fZZ6WzuSZkNdnRIMsESl8jOtXed0bHxp7IR6LrDblEDA4ObYLxEgtbOCz+IE7J/qaCYkwdTgyDQV+gt9Bd6DH1mB/Qh+yJuu+02ncyPdBwW0KlBxiYsUE4as96wiCIWCZCi484779RsSe5yO38bQu7r6JdT75zVeU5GBp39kmGAZyY4VqqsGzbvOAGXkz7z2pCEgYFrvHvtWmQTnQtXE/nUWNkEWQTtw3cL9BV6C/2FHrOb5PLMWA1btmyRe++9VxobG6f/5SampqaS3nXtBpokQBiCtILZ0bCsidtvv10LwimroT5v4kKHnHjztM534pR3PSzgBsP/WVTmMnjNEr5rJnhtYOAWTKpIa3PVVdC6QIrLi1Jm6St6Cn2F3kJ/uTkvYunSpXL33Xe/z4qIhuWlCVJ/axOCWAMIgyhiuZ7YN3HrrbfqvRNulsQO9w/L6f3n5eDeY9J2qcMx30kYIHkYKykKytwsgx2LZLCcJHhtlsIaGDiBcU/Qmp3WjB8nFE0HrVOBJNBP6Cn0FXoL/WUXt0T/sXFu9+7dOg7BpmM7WF6aoPT3DW3MQ1NIWEQR7XqCNFj/C2uuXbs2LmtaQOik1D340lE5/PJx6U2BlB1pqjMWlTN7KXT0gXKmhE4rMG72SxgYuEHEihiWSTW5unZ1YvrT2GD8FVUU6hWHbHadTaCX0E/oKfQVestpUktwmbRFDzzwgNaHblxK1uQ7iNDBe+4YpkUx0/VEPAKziiC2m+R/rCZqPd8uB188qtj5nIwMzm46cVJy5BXlSen0MYl2gJD1pjoTlzAwcIXITutBmXSRRZnFI2XVJTouMdtBa/QS+gk9hb5y2uOF3qupqZE9e/bozcbEJdyCGAUk4bf+fp8ELYtiNoLZkAPCsbaeO1V2YmxSLp1slgOqAa6cbJrVTXY8K7nry2pKtKnrhKmJUb3CiWCcgYGBPSJB6xF38YgSDhkq1mk5wpjwxgP6CL2EfkJPoa/swLOi98iSfdddd+mNc14RhOspJhNgUUAWTrN5PxBtUVgb7Ijmu3E7sXcC/96pd87JvucO612Ms5nbKbKprkgKywqnP4kPLAlmRmS0NDAwsAcZCrAimFw5obC8QCf2S59FKwI9hD5CL6GfdBxC6Ss7oO/Qew8++KBe1eSUiSIe/CaKuFKEJMIiCsufBkpKSjSTEp+oq6tzLJ+j/3ra+jRb73v28Kzun6BT6p3XqpM64cbxi5NjSs4mLmFgEA/ooWuTEzI5MqDGjYugdVlBZAPdLAWtrf0Q6CP0EvrJ6Qhm9Bz6Dr3Hvohkk/hZROGHR8j2DmFaFNHsx94JgjZE9tlk51TRq1OR3E5vPX1ANcoR6escUM9uz9pBIG1xmj7zuliRRFq6PYtfm5rSnV7HJYzLycAgLnQ8YmxYJobVuOYsFhssUuOuuFKNQXXNhiWBvhzoGZRDe4/J288cUHqJ0+bsvQXoN/Qc+g69x1YAP6wAdKofMQpHKVrB7DCIwnI9sXeCIPZHP/pRvQyM3E5OFSXVLrnZX//5Pjn8yvHIKU8h8wQNkleYK2U1pZKbb+8qAyzlMzuvDQzsgUsW16zOnqyUsB1y87KltLpUj0M/ZtFeMTo0JsffPCNvPrlf74twipOi19Bv6Dn0nd2eiERgEUUyskj/L//lv3wVxWx3UQBbwGkgCvVy8dtY94x3WSYS763Tl9rb23VuJ6L3drh+7V0Z6h/ROxvJylpRXxb6OmksmJ7WXrl0okkGex0ONc/KkryyasktqZT0DPtNhAYGCxXXJsdlqKNJ+lsvaKKwQ0VdmWy/d5Ms29AY+ml0EMLpAxfkxR+8Kqf2nZeJUfuluoDlrsQfPvGJT+hgtZWbye4CM/Wm3WXp01j3srswEPhd+n/7b//tqxCA02VZEihqLmb9bi5YkQBMrHvGuqyKkcCK17y8PJ1kqrm5WScDtCybeCBgNNSnTNOxSSmrLdNL4cI8AJ3g1BCn6R2/Il3NPdOfxkZaWroiiCrJK69VHdp+2ayBwUIFcYjBtgv6IjZhh7pVNbLtno1SvaQq1AkicYiLJ5rlhe++LEdePaEnqk5WD/ptxYoV8uEPf1juv/9+7XKKpUNnXvwOvRpLf8a7+A16m2Srse4Z68LKQf96skH4EUo6aNcT5cBkbE1nGRjBHNJ2sDPbye1Ew2DyHVUN9dy3X9aZWZ0ay0/ojTyk5yh3XuHESo3x4X49CEzw2sDg/WBcXJsc0+NkysVO6+IyNtEVhbo/Av3Scq5N9v7wVTn40jE1SR1xXMmEHmMnNbqN3HVLlixx1G3JwrIMvMKzJCkIoYQRo4D5YDLyqH/oQx/SeyjcHADO8w0PjMqBFw7Lc4rZWYoWFlFg2rGyAneX027P61cVs6vOb5bCGhjEBos6OKRrcmhAjxc7QAyl1SWRsRcSSaBXCE6/+MPX5a1fHoycMudi0QxxCMiBOAT6zXIJBQ0m31gWXvRhQpIMkyioFMSwfft2efTRR/UuRPx4TuD5iE/se+6QYvjXpeNKt6vGSxa4tthxXV5bKrmFzs95dWJcpw43yf4MDN4PHbQmqZ/eH2E/fnMLc6SstkS/huFiRp9wTvVLP3hN3njiHenrGHClY8guQaD6k5/8pF7uz0QYoOvCIAom3xCFWyRMt2ESBf4xEl6xfvgjH/mIbNiwwdVGExqst71fXlcN+NIPX5PWC+3adxg0WJ/N2RJYFE6g85Mf31gSBgbvB+OCYDX7iZyAq6mkAisiDJ10XS6fbpFnvr1XXvnZm9LV3Kt1ohOY4DLR5RAhLAn2hUUDXReWReG2nKRssrCIgjIoi7Qd+PAgCs7GdlNJVhthRbz8k7fkpR+9Ls3n2gLflU0eJzbVuYlLEI9gr8R11WgGBgbvhSYJNT7cZH5lzJWoy2mPUrIgQd/FY1fk2W/tlVd/+pZ0XulxRRDEWMkogQVBoJqYxMw4BLoOovAy008UFlE4xUKSdtyFSRRUho0mbDj54Ac/KPX19dP/ag+9A7KpS157HIvidblyptVxg0sywL9I8IyMsE64Ojmuz7wmiG2S/RkY3ASJ/HRmAhZ3uLAkmJSxaCTII4E5QpmzqVkU89ZTB7Snwg1BgGXLlukYBGk3WJATT2daRJEqFoUv0rSEFDRRUA5lYEVAEg899JC2LtwAouhq7pY3ntynfYgX1EyAdcw0iN/AH0qHLa0pcVyrjQUxSdrwEVxOhiQMDCzoeIQaGxMjBK3tJ3WLM9L1JlYOGsKS9xvoidHhcTmz/7wmiHeeOyj9Xc5L8i0wuYUgWO7KYUJOlgL3DYsoiFHYleMb5VKhMCwKYJltCP0DH/iAXl/sBvgRu1t65K1fHpAXv/eKnCLF+AAzeH+JAosnJy8SvCZdsdj22XcjLqcxSGL2stgaGKQaGA9TowStsSJsxqgaX5wxrxeLFGT7vpQU/TDcP6JPlXvuOy/L/ucPy0CXGq8uCYI0Q4899pjeMLdq1SrH0zctpIpF4atdFpZFAUjdwU7Fj33sY9r95HR6kwWdELC1V/Y9f0Re+G5kXXO3+vuaz6fbsRyPk7FwOS2yZwk9CCbHRkxcwsAgCpGVTSPTJBEfjK9CNc6K1XhL81n3oBfQD5wq9+IPX9Mpfwa63RNEVVWVXr5PHIKDhNgE54XEUoEofHfeUSEQBlGwdIyVAlgU9913n3uiUBYFSQDZGfm8sihe+8U70nS2NZLv3SejApcTgTQdl3DoE5Hg9aAiCcr33/1lYDD38K4eD4wLx3iEGl8lapwRtPbNilDDEH2AXkA/MKE8/vppGexxTxBs/iX+gBWB5wN9lcjzQRSUOVtEEUiExyIKArhBgzXHnGb36U9/Wh5++GFPMYrBvmHtY3z5x2/ogPbJt89oP6NTWl83oDPo4DUd14Elrk1N6AyXU+Ns5U++bAODuQ6C1owHjvl1SsXBWOP8CC4/9kcw/tED6AP0AvrhzIHzMtRPMk53kziW7EMQ6CXrhLlkCAySQK+GMfmGKKLLSf+qwvR7R/Cg5P5wA9gPocBKiVRsfHx8+p09KAPXE2YdKwYQJAkBh4aGpr9hA9XeLGdjdzarFPqVdcHf2XlZekNcsrlfIEnWUp8/ctl22S2yysjJl/yyGsnKL1Emc/AzBgODVMb1qSkZ7WmTvqYzMjbQPf1pbGRmZ8iWOzfI1rs2SFZOcqfRTU5MSfulTjm897i88cQ+Ofr6Kem40iWT41NaX7gBHg0W1nzuc5+7cTaE3YTZra4Dlk5NxKpAd7u1gtBJ6G3iJ4uUMnXt36CiboMuFhAAv3P7cBZQ/F5AOcPDw3L48GH58Y9/LE888YS0tLRM/6sziCHkFuRI3Ypq3eG2qA7XsLpWf5ZoHpirk1flue++Ij/+v0/og0cQfDzkV9RL7ebbpXz5Jk0YBgYLGWyg675wVFqPvCbDXc3Tn74fKE1ScTz2ux+SBz5/l2QkmPkVzwI530jvffjl4zr2QDofPvOyAZfJKnsgCFLv3LlTp99w8qh41XXWRN2rTkV3Oz1LNNBXlJX+n//zf/4qhbm5rFk7Bbm9KATzhd8yy49131gXOxNj3S/eZbm4MPNgbu7R0dHhzqJQ0AJRswWSc/V19CvrIpKki3Nys3KzErMq1ISGrfrnj11W5uugLUmkZWRIbnGl5JVWy+Is//LJGxjMRXC872DbJRlsv2QbuGYCV7OkUnbcv1nqV9Uk5G7CeiBjM+6lt58+IIdeOibN59plbHjcdsxGA/0GQbCIBhcT50IUFkb2Sc3UbTMvr7oOfYpetd7HumesiywVWCAz7xfvou5MvtP/6I/+yLW7iR96tSSiTRwe0HrvBK/sirAsnx1LYgkage7ubm1huC0Xt9Do0Kj0KqLABTU2ooSkOmKWIgtmKcjANVT/4l4Xjl7ROV7sltqyASi7sEynDc/MZtls8r5VA4M5CSZsIwPS33JehjubxC6xHySxdH2DbL9vk14Ci7J2C32sQO+wPvtl/wtH5J2nD8qpfeeU1d+rN825BXqNfRDs2yJIvW3bNk/Hjyaq69Bp7Ldwq9u8WhLc94Yl4VawyZIEr26JIlHBURcu/IJckEZPT4+2KCxrwwkEp8ZHJ2RAzf67W/u0FTA5Nqk3xmFVsHHHrcwwVS8evSyXTzXbm61qYGTmFUo+JKFeg9w1amCQyuCkxrGBLulvOiMjPW1qaMQfN1j4a3euVCSxWfKKcl2NSz1DVuO79UKHHH31pLz9zCHtYmo63aI9CF7cS+ip5cuX6+SjLMffvHmzDlKDoHUd4NUtUSRMEl/5yle0JcGPnUyrZEkCUIYb4SUjODoKzwpJYFUgRKwJLp7HFZQoSN3BZjtmFmzCGx0c0+ZsZlaGZKjLyQWln0PNdK6capHzRy/Zzk7eVf9l5ORJXlmNsihK1e9M8NpgYeLa1UkZ6W6T/uazMj7YO/1pDCg+yFaTtq13rZfNd6zX49IJnB6HO/nc4Uuy75nD8s6zB+XsoQvS296n3U5ug9OMbbJTQwof//jHdQxizZo179kHEZau4/5uykmaJKgQs247ovCDJAAVpFJ2ZSUjOGARBW6nmpoa3aA8C6fb4WezKzsauIhYL81RpD3tvXp/xfjIhM70yqqKxRn2LijOlCDfPNbE6KB9ucQi8kqqJKdYWUAZzlluDQzmI4hBDHdekYHWi3rHdTyQfqOkqkh23L9FVm9bbhuPwLXErmkdmN57XFkPB+Xo6ye1NTE2NGbrCp4Jy6XNQWif+cxndMLR1atXx9SfYeg64IYokiYJQEW4SbwK+UUSKHCnsvwQHKAMgtnsn+AVjIyM6CNRY30/HjBBCWQRp+hSVsVA75B2QTHzWKwIIx2yiLEKirr2d/brrJHEOew6Y/pigtcV2powwWuDhQrOVxlsuyhDHZcdgtbpUru8Wscj6lbWTH/6Xugl7oocOCbg5NtnZd/zh+XAC0f1eBzoGfKUaYGxTJCZRH0EqD/72c/qlUyk3cBbMdu6jvvbuZ58IQlgVyE+94MkLNiV5ZfgAPfHkoD9IQsamqRWlvspVvmxwPcwVzlDG/cT66d7OwZkYjRiIeB+gjBmkgXL6DjzmvXXtv5O1aFwNem4BMtg1d8GBgsKahxNDPdLf8s5Gepqtg1aM9aWbWyUbfds0mfZR4Pl54zTCDmckX3PHVHkcERvimMlE94Bt+MeYCVw9gNB6UceeUQHqG+99db3HKmcCrqO8uNZFL6RBKAisQrymyRAPOH5KTjAM7AtnkYlxTirDyAKrArcT3bPOBNYAwS+CGh3Nndrd1JkJRQ7Q5Gdsiy4pskCYrh0olkunWqyn7m8e10ycgoiJJEfbMpjA4NUhA5a93VK35XT6tX+2GFWG67btVqTRN70KZDE/YYVObScb5Pjb0IOh2X/80fk9P7zepzqZa0eXEsQADoPlzXuJZa3ksmVI0f//+2db09cRRSHz9rlT5cgBtoKUgW1RKp9I4rxBcFF3/gZmjS87eeCL9GYKIQ0hQBS0yBFhQpUEFlb6CortCDeZ+joerm73Nndu116z9PclG6XnZlzd87vnpk5M/ZEOUst+bog/11RkYCggqIQCcBoVo0tlTYcUA8+l6iC7GwmtmkjIsHFZxT7Uvox8xVGLJ5I5uEjEymQNMcXkWEoDj+hXXWNdfLLTxtm8tpkbhaAsuvOp0yuhJm8TkZ/8Iii1BKHz/bkz8y6iST2stvPXz0J/ep883n58LNr8sGnvcfLWRGHpU35fnJRZr76zojDj3MPTMS/t+smDkD0wEoljiaw+Q9DQ0PmIZNhHT+15uv8/rtUkUhsb28XtRwFUSEax8/sleQCQzo06jQwHJdtFJmKLjDHsL9ffI8XC+2gTtRtdXVVbt++LRMTEzI/Py+ZTMZ8zmk3Owgm0jjX+uLlNum++qYJhS9f6ZC2N1rNOOitkW9MqFtsyCnV+rq0X/1E2t6+JnUpzbxW4gWn0D36eV42709L7vFvz189CUO6Fzvb5Mvhz82cBDs7c+okcw0r9x+afpbL5rx+7CYMgCMl8YyHSDbmGxwcNCdicmyyXd4aRC37OsB38++wWB95qkiAFQqUNSqRgHzjRWk4oC20iScC8ijm5uZkfHxcpqenZWlpSTy7hK63H9rA3k+t7a95X+QL0t59SXazu7I4s2S2HS4mEvWpZmnpfFdebe+WJEl1ihIjTKb15oo8WV82Z78XApG40NEqvf1XpKmlyUTxmfXfj4d9HTKl/eDr8D3kPrDvUjqdlr6+PpNNfdq5+rXu60oWibB7N9mCXEOjMCFYPhiOyvnH+06D+QXq5wJlEYLxN3MTKysrRiTGxsZkZmbGbBTougrKD08lCAbLZcne3s8VnzAjP4J8iWRDkyQ8mytKnDjy+trB/q5Z4cR5EoWgzzak6s3hXgzhIgylRP8W/Bu+jYUt7LlE9MAcBKfIhfVFZ8XXhYW2mOEmz2GFllwqh9N0MYSregFVwmm7PMmj8iSyuEI5tAsod2dnRxYWFuTOnTsyNTUli4uLJtLAWA6mUhTlDGCdJ0NLHAo0MDBgBKK3t9eIhkufP0u+Lgy0hTY5iQQNQST4lbBCUYrhAGfN74U1XqmGI5yC/HII5ba2tuTevXtmroKogrkLtvbgfS5fHEVRag/EAf/CJnzkPTC0xMFlLHElmiCyiIOvKwZ1KkkkKAgDQpiQpxzDcSMpK0yjyjEcn2+H0/LJ5XJmCAqRILJANDY2NszrYQ2tKEptgT9iiIdVSogCkQM5D8xD2KGfuPm6IMoSCQhrvHIMB2GNV67hgHr6y+EpIpvNyvLysty9e1cmJydldnbWnFURxtCKotQO+JLOzk4jCohDf3+/9PT0mGXx+ctD4+jr/FiRKDlbC4PRKJd1t6Vgwz17o6IEo/nLoX2sPuCJg8PMr1+/bia2SrlJiqK8WOi39N/h4eF/+zKZ1MX8WFx8XSHKajUFWfWLEgzHVYpKu8IXIqg9VixIrOnq6nJe5aUoyouHfkv/JXo4TRzyiZOv81O2NFZbZatlvKCMSrBtjbq9iqJUHtt36ceuxM3XWSrSWlS2Go6zmirLUrFqlKMoytkhjr6u5InrIAhdrApayp3MCYIbhKKjgpZKTOYEQd3z/39tbU1GRkZkdHTULJMtTEKSDY2SrC9h7oKHHP9dCfuaUlvYB9Zq3KegsqpZ/gvm4OlfcrC/5/1UuLHsBH3jxg25efOmGTouhPq6/yauKyoS4DdeFIYDq+a2UVEZDvKNF1Yk2MG1peMdae16X855YhGaQp065g7gzFLNexTj78ihJw6PVxfkya8P5CjPcfuplEjAy+7rIhMJyDdeVIaDfJWN0nDAuB1hWWiR8Gxw6b2P5a2PvpDG5v/vda8oSmXZ+2Nb1r79WrZ+mDVbexSikiIBL7OvsyIRycAaDanGBA83hhvEjYoa1zmKBH8S3hPAuaTZ8lsvvfSK6uJUyKTpb/S7ahIHX+cUSfBWh7cbMCCXKzaEC0u1ysGAJNdxVnb+OOEJvLok6xulrjEliVeiv7GKEmeO/j6UZ3s5OXjKWS6FfRROlsQ5rmJn46ivO8ZEMJ4h3CyhKIqixIZoYyRFURTlTJNIp9MaSSiKoiiBMLClIqEoiqIEosNNiqIoSkFUJBRFUZQCiPwDUkXsao09k94AAAAASUVORK5CYII=;" vertex="1" parent="1">
          <mxGeometry x="349.18" y="-220.00000000000003" width="81.64" height="94.73" as="geometry" />
        </mxCell>
        <mxCell id="9y3fLZ6qa99xW5hHlUQ8-4" style="edgeStyle=orthogonalEdgeStyle;rounded=0;orthogonalLoop=1;jettySize=auto;html=1;entryX=0.5;entryY=0;entryDx=0;entryDy=0;entryPerimeter=0;flowAnimation=1;strokeWidth=2;" edge="1" parent="1" source="9y3fLZ6qa99xW5hHlUQ8-2" target="9y3fLZ6qa99xW5hHlUQ8-3">
          <mxGeometry relative="1" as="geometry" />
        </mxCell>
        <mxCell id="9y3fLZ6qa99xW5hHlUQ8-5" value="&lt;b&gt;&lt;font style=&quot;font-size: 14px;&quot; face=&quot;Comic Sans MS&quot;&gt;expense-cdn.daws81s.online&lt;/font&gt;&lt;/b&gt;" style="text;html=1;align=center;verticalAlign=middle;resizable=0;points=[];autosize=1;strokeColor=none;fillColor=none;" vertex="1" parent="1">
          <mxGeometry x="320" y="-120" width="210" height="30" as="geometry" />
        </mxCell>
      </root>
    </mxGraphModel>
  </diagram>
</mxfile>
